<svg width="885" height="505" viewBox="0 0 885 505" fill="none" xmlns="http://www.w3.org/2000/svg">
<mask id="mask0_256_32" style="mask-type:alpha" maskUnits="userSpaceOnUse" x="0" y="0" width="885" height="505">
<rect width="885" height="505" fill="#D9D9D9"/>
</mask>
<g mask="url(#mask0_256_32)">
<path fill-rule="evenodd" clip-rule="evenodd" d="M911.73 286.545C867.015 368.919 792.39 442.275 701.211 461.79C616.905 479.835 545.189 405.858 462.392 382.719C395.827 364.116 321.79 378.724 264.685 339.797C201.419 296.672 152.087 232.602 132.893 158.113C112.789 80.0975 108.836 -12.3065 157.283 -76.995C204.239 -139.693 303.752 -118.321 370.447 -159.082C443.42 -203.681 474.902 -327.57 559.912 -323.066C643.19 -318.653 658.365 -194.455 721.847 -140.463C792.166 -80.6558 910.436 -77.5441 948.054 7.05244C987.028 94.6961 957.711 201.838 911.73 286.545Z" fill="#FFB400"/>
</g>
<path d="M422.193 197.22H430.088V224.31C430.088 226.815 429.541 228.99 428.446 230.837C427.364 232.683 425.858 234.106 423.927 235.105C421.996 236.104 419.752 236.604 417.194 236.604C414.919 236.604 412.852 236.193 410.995 235.371C409.151 234.536 407.687 233.271 406.605 231.576C405.523 229.869 404.988 227.725 405 225.145H412.951C412.975 226.17 413.178 227.049 413.56 227.782C413.953 228.503 414.488 229.06 415.165 229.452C415.853 229.831 416.665 230.021 417.6 230.021C418.583 230.021 419.413 229.806 420.09 229.376C420.779 228.933 421.301 228.288 421.658 227.441C422.015 226.593 422.193 225.55 422.193 224.31V197.22Z" fill="white"/>
<path d="M444.624 236.623C442.817 236.623 441.206 236.3 439.791 235.655C438.377 234.998 437.258 234.03 436.434 232.753C435.622 231.463 435.216 229.856 435.216 227.934C435.216 226.315 435.505 224.955 436.083 223.855C436.661 222.755 437.449 221.87 438.445 221.199C439.441 220.529 440.572 220.023 441.839 219.682C443.118 219.34 444.458 219.1 445.86 218.961C447.508 218.784 448.836 218.619 449.845 218.467C450.853 218.303 451.585 218.063 452.04 217.746C452.495 217.43 452.723 216.962 452.723 216.343V216.229C452.723 215.027 452.354 214.098 451.616 213.44C450.89 212.782 449.857 212.453 448.517 212.453C447.102 212.453 445.977 212.776 445.141 213.421C444.305 214.053 443.751 214.85 443.481 215.811L436.213 215.204C436.581 213.434 437.307 211.903 438.389 210.613C439.472 209.311 440.867 208.311 442.577 207.616C444.298 206.908 446.291 206.553 448.554 206.553C450.128 206.553 451.634 206.743 453.073 207.123C454.524 207.502 455.809 208.09 456.929 208.887C458.06 209.684 458.952 210.708 459.603 211.96C460.255 213.2 460.581 214.686 460.581 216.418V236.073H453.128V232.032H452.907C452.452 232.942 451.843 233.745 451.081 234.441C450.318 235.124 449.402 235.662 448.332 236.054C447.262 236.433 446.026 236.623 444.624 236.623ZM446.875 231.045C448.031 231.045 449.052 230.811 449.937 230.343C450.823 229.863 451.517 229.218 452.022 228.408C452.526 227.599 452.778 226.682 452.778 225.657V222.565C452.532 222.73 452.194 222.881 451.763 223.02C451.345 223.147 450.872 223.267 450.343 223.381C449.814 223.482 449.285 223.577 448.757 223.665C448.228 223.741 447.748 223.811 447.318 223.874C446.395 224.013 445.59 224.235 444.901 224.538C444.212 224.842 443.677 225.253 443.296 225.771C442.915 226.277 442.724 226.91 442.724 227.668C442.724 228.769 443.112 229.61 443.887 230.192C444.674 230.761 445.67 231.045 446.875 231.045Z" fill="white"/>
<path d="M492.079 206.933L482.173 236.073H473.319L463.413 206.933H471.714L477.598 227.782H477.894L483.76 206.933H492.079Z" fill="white"/>
<path d="M503.42 236.623C501.612 236.623 500.001 236.3 498.587 235.655C497.172 234.998 496.053 234.03 495.229 232.753C494.417 231.463 494.012 229.856 494.012 227.934C494.012 226.315 494.301 224.955 494.879 223.855C495.457 222.755 496.244 221.87 497.24 221.199C498.236 220.529 499.367 220.023 500.634 219.682C501.913 219.34 503.254 219.1 504.656 218.961C506.304 218.784 507.632 218.619 508.64 218.467C509.649 218.303 510.38 218.063 510.835 217.746C511.29 217.43 511.518 216.962 511.518 216.343V216.229C511.518 215.027 511.149 214.098 510.411 213.44C509.685 212.782 508.652 212.453 507.312 212.453C505.898 212.453 504.772 212.776 503.936 213.421C503.1 214.053 502.546 214.85 502.276 215.811L495.008 215.204C495.377 213.434 496.102 211.903 497.185 210.613C498.267 209.311 499.663 208.311 501.372 207.616C503.094 206.908 505.086 206.553 507.349 206.553C508.923 206.553 510.43 206.743 511.868 207.123C513.32 207.502 514.605 208.09 515.724 208.887C516.855 209.684 517.747 210.708 518.399 211.96C519.05 213.2 519.376 214.686 519.376 216.418V236.073H511.924V232.032H511.702C511.247 232.942 510.639 233.745 509.876 234.441C509.114 235.124 508.197 235.662 507.127 236.054C506.058 236.433 504.822 236.623 503.42 236.623ZM505.67 231.045C506.826 231.045 507.847 230.811 508.732 230.343C509.618 229.863 510.313 229.218 510.817 228.408C511.321 227.599 511.573 226.682 511.573 225.657V222.565C511.327 222.73 510.989 222.881 510.559 223.02C510.14 223.147 509.667 223.267 509.138 223.381C508.609 223.482 508.081 223.577 507.552 223.665C507.023 223.741 506.543 223.811 506.113 223.874C505.191 224.013 504.385 224.235 503.696 224.538C503.008 224.842 502.473 225.253 502.091 225.771C501.71 226.277 501.52 226.91 501.52 227.668C501.52 228.769 501.907 229.61 502.682 230.192C503.469 230.761 504.465 231.045 505.67 231.045Z" fill="white"/>
<path d="M549.048 215.242L541.854 215.698C541.731 215.065 541.467 214.496 541.061 213.99C540.655 213.472 540.12 213.061 539.456 212.757C538.804 212.441 538.023 212.283 537.113 212.283C535.896 212.283 534.869 212.548 534.032 213.08C533.196 213.598 532.778 214.294 532.778 215.166C532.778 215.862 533.049 216.45 533.59 216.931C534.131 217.411 535.059 217.797 536.375 218.088L541.503 219.15C544.258 219.732 546.312 220.668 547.665 221.958C549.018 223.248 549.694 224.943 549.694 227.042C549.694 228.952 549.147 230.628 548.052 232.07C546.97 233.511 545.482 234.637 543.588 235.447C541.706 236.243 539.536 236.642 537.076 236.642C533.325 236.642 530.337 235.839 528.111 234.232C525.897 232.614 524.6 230.413 524.219 227.63L531.948 227.213C532.182 228.389 532.747 229.287 533.645 229.907C534.543 230.514 535.693 230.818 537.095 230.818C538.472 230.818 539.579 230.546 540.415 230.002C541.264 229.445 541.694 228.731 541.706 227.858C541.694 227.125 541.393 226.524 540.803 226.056C540.212 225.575 539.302 225.208 538.072 224.955L533.165 223.95C530.398 223.381 528.338 222.394 526.986 220.991C525.645 219.587 524.975 217.797 524.975 215.622C524.975 213.75 525.467 212.137 526.451 210.784C527.447 209.431 528.843 208.387 530.638 207.654C532.446 206.92 534.561 206.553 536.984 206.553C540.563 206.553 543.379 207.331 545.433 208.887C547.499 210.443 548.704 212.561 549.048 215.242Z" fill="white"/>
<path d="M567.445 236.642C564.542 236.642 562.046 236.009 559.955 234.745C557.877 233.467 556.278 231.697 555.159 229.433C554.052 227.169 553.499 224.563 553.499 221.617C553.499 218.632 554.058 216.014 555.177 213.762C556.309 211.499 557.914 209.734 559.992 208.47C562.07 207.192 564.542 206.553 567.408 206.553C569.88 206.553 572.044 207.015 573.901 207.938C575.758 208.862 577.228 210.158 578.31 211.827C579.392 213.497 579.989 215.457 580.099 217.709H572.684C572.474 216.254 571.921 215.084 571.023 214.199C570.138 213.301 568.976 212.852 567.537 212.852C566.319 212.852 565.256 213.193 564.346 213.876C563.448 214.547 562.747 215.527 562.243 216.817C561.738 218.107 561.486 219.669 561.486 221.503C561.486 223.362 561.732 224.943 562.224 226.246C562.728 227.548 563.435 228.541 564.346 229.224C565.256 229.907 566.319 230.248 567.537 230.248C568.435 230.248 569.24 230.059 569.953 229.679C570.679 229.3 571.275 228.75 571.743 228.029C572.222 227.295 572.536 226.416 572.684 225.392H580.099C579.976 227.618 579.386 229.578 578.328 231.273C577.283 232.955 575.838 234.27 573.993 235.219C572.149 236.167 569.966 236.642 567.445 236.642Z" fill="white"/>
<path d="M585.131 236.073V206.933H592.749V212.017H593.044C593.561 210.209 594.428 208.843 595.645 207.919C596.863 206.983 598.265 206.516 599.851 206.516C600.245 206.516 600.669 206.541 601.124 206.591C601.579 206.642 601.979 206.712 602.323 206.8V213.971C601.954 213.857 601.444 213.756 600.792 213.668C600.14 213.579 599.544 213.535 599.003 213.535C597.847 213.535 596.814 213.794 595.904 214.313C595.006 214.819 594.293 215.527 593.764 216.437C593.247 217.348 592.989 218.398 592.989 219.587V236.073H585.131Z" fill="white"/>
<path d="M606.386 236.073V206.933H614.245V236.073H606.386ZM610.334 203.177C609.166 203.177 608.163 202.778 607.327 201.981C606.503 201.172 606.091 200.204 606.091 199.079C606.091 197.966 606.503 197.011 607.327 196.214C608.163 195.405 609.166 195 610.334 195C611.502 195 612.498 195.405 613.322 196.214C614.159 197.011 614.577 197.966 614.577 199.079C614.577 200.204 614.159 201.172 613.322 201.981C612.498 202.778 611.502 203.177 610.334 203.177Z" fill="white"/>
<path d="M620.54 247V206.933H628.287V211.827H628.638C628.982 211.043 629.48 210.247 630.132 209.437C630.796 208.615 631.657 207.932 632.715 207.388C633.785 206.832 635.113 206.553 636.699 206.553C638.765 206.553 640.672 207.11 642.418 208.223C644.164 209.323 645.56 210.986 646.605 213.212C647.651 215.426 648.173 218.202 648.173 221.541C648.173 224.791 647.663 227.536 646.642 229.774C645.634 232 644.256 233.689 642.51 234.839C640.776 235.978 638.833 236.547 636.681 236.547C635.156 236.547 633.858 236.288 632.789 235.769C631.731 235.251 630.864 234.599 630.187 233.815C629.511 233.018 628.995 232.215 628.638 231.406H628.398V247H620.54ZM628.232 221.503C628.232 223.235 628.466 224.747 628.933 226.037C629.4 227.327 630.077 228.332 630.962 229.053C631.848 229.762 632.924 230.116 634.191 230.116C635.469 230.116 636.552 229.755 637.437 229.034C638.323 228.301 638.993 227.289 639.448 225.999C639.915 224.696 640.149 223.197 640.149 221.503C640.149 219.821 639.921 218.341 639.466 217.063C639.011 215.786 638.341 214.787 637.456 214.066C636.57 213.345 635.482 212.985 634.191 212.985C632.912 212.985 631.829 213.332 630.944 214.028C630.071 214.724 629.4 215.71 628.933 216.988C628.466 218.265 628.232 219.77 628.232 221.503Z" fill="white"/>
<path d="M668.484 206.933V213.004H651.42V206.933H668.484ZM655.294 199.951H663.152V227.118C663.152 227.864 663.263 228.446 663.484 228.864C663.706 229.268 664.013 229.553 664.407 229.717C664.813 229.882 665.28 229.964 665.809 229.964C666.178 229.964 666.547 229.932 666.916 229.869C667.284 229.793 667.567 229.736 667.764 229.698L669 235.712C668.606 235.839 668.053 235.984 667.34 236.148C666.627 236.326 665.759 236.433 664.739 236.471C662.845 236.547 661.185 236.288 659.758 235.693C658.344 235.099 657.243 234.175 656.456 232.923C655.669 231.671 655.282 230.09 655.294 228.181V199.951Z" fill="white"/>
<path d="M665.768 120.551H660.12C660.017 119.825 659.806 119.179 659.488 118.615C659.17 118.043 658.761 117.556 658.263 117.154C657.764 116.752 657.188 116.444 656.535 116.231C655.89 116.017 655.189 115.91 654.432 115.91C653.065 115.91 651.875 116.248 650.86 116.923C649.845 117.59 649.059 118.564 648.5 119.846C647.941 121.12 647.662 122.667 647.662 124.487C647.662 126.359 647.941 127.932 648.5 129.205C649.067 130.479 649.858 131.44 650.873 132.09C651.887 132.739 653.061 133.064 654.394 133.064C655.142 133.064 655.834 132.966 656.47 132.769C657.115 132.573 657.687 132.286 658.185 131.91C658.684 131.526 659.097 131.06 659.423 130.513C659.759 129.966 659.991 129.342 660.12 128.641L665.768 128.667C665.622 129.872 665.257 131.034 664.672 132.154C664.096 133.265 663.318 134.261 662.338 135.141C661.366 136.013 660.206 136.705 658.856 137.218C657.515 137.722 655.997 137.974 654.303 137.974C651.948 137.974 649.841 137.444 647.984 136.385C646.136 135.325 644.674 133.791 643.599 131.782C642.533 129.774 642 127.342 642 124.487C642 121.624 642.542 119.188 643.625 117.179C644.708 115.171 646.179 113.641 648.036 112.59C649.893 111.53 651.982 111 654.303 111C655.834 111 657.252 111.214 658.559 111.641C659.875 112.068 661.04 112.692 662.054 113.513C663.069 114.325 663.894 115.321 664.53 116.5C665.175 117.679 665.588 119.03 665.768 120.551Z" fill="white" fill-opacity="0.9"/>
<path d="M675.164 111.359V137.615H669.67V111.359H675.164Z" fill="white" fill-opacity="0.9"/>
<path d="M688.515 138C686.512 138 684.779 137.577 683.318 136.731C681.865 135.876 680.743 134.688 679.952 133.167C679.161 131.637 678.765 129.863 678.765 127.846C678.765 125.812 679.161 124.034 679.952 122.513C680.743 120.983 681.865 119.795 683.318 118.949C684.779 118.094 686.512 117.667 688.515 117.667C690.518 117.667 692.246 118.094 693.699 118.949C695.161 119.795 696.287 120.983 697.078 122.513C697.869 124.034 698.265 125.812 698.265 127.846C698.265 129.863 697.869 131.637 697.078 133.167C696.287 134.688 695.161 135.876 693.699 136.731C692.246 137.577 690.518 138 688.515 138ZM688.541 133.769C689.452 133.769 690.213 133.513 690.823 133C691.434 132.479 691.894 131.769 692.203 130.872C692.521 129.974 692.681 128.953 692.681 127.808C692.681 126.662 692.521 125.641 692.203 124.744C691.894 123.846 691.434 123.137 690.823 122.615C690.213 122.094 689.452 121.833 688.541 121.833C687.621 121.833 686.847 122.094 686.219 122.615C685.6 123.137 685.132 123.846 684.814 124.744C684.504 125.641 684.349 126.662 684.349 127.808C684.349 128.953 684.504 129.974 684.814 130.872C685.132 131.769 685.6 132.479 686.219 133C686.847 133.513 687.621 133.769 688.541 133.769Z" fill="white" fill-opacity="0.9"/>
<path d="M714.54 129.231V117.923H720.034V137.615H714.76V134.038H714.553C714.106 135.192 713.362 136.12 712.322 136.821C711.29 137.521 710.031 137.872 708.543 137.872C707.219 137.872 706.054 137.573 705.048 136.974C704.042 136.376 703.256 135.526 702.688 134.423C702.129 133.321 701.846 132 701.837 130.462V117.923H707.331V129.487C707.34 130.65 707.654 131.568 708.273 132.244C708.892 132.919 709.721 133.256 710.762 133.256C711.424 133.256 712.043 133.107 712.619 132.808C713.195 132.5 713.659 132.047 714.012 131.449C714.373 130.85 714.549 130.111 714.54 129.231Z" fill="white" fill-opacity="0.9"/>
<path d="M731.728 137.936C730.224 137.936 728.861 137.551 727.64 136.782C726.428 136.004 725.465 134.863 724.751 133.359C724.046 131.846 723.694 129.991 723.694 127.795C723.694 125.538 724.059 123.662 724.79 122.167C725.521 120.662 726.492 119.538 727.705 118.795C728.925 118.043 730.262 117.667 731.715 117.667C732.825 117.667 733.749 117.855 734.488 118.231C735.236 118.598 735.838 119.06 736.294 119.615C736.758 120.162 737.111 120.701 737.351 121.231H737.519V111.359H743V137.615H737.583V134.462H737.351C737.093 135.009 736.728 135.551 736.255 136.09C735.791 136.62 735.185 137.06 734.437 137.41C733.697 137.761 732.794 137.936 731.728 137.936ZM733.469 133.59C734.355 133.59 735.103 133.35 735.713 132.872C736.332 132.385 736.805 131.705 737.132 130.833C737.467 129.962 737.635 128.94 737.635 127.769C737.635 126.598 737.472 125.581 737.145 124.718C736.818 123.855 736.345 123.188 735.726 122.718C735.107 122.248 734.355 122.013 733.469 122.013C732.567 122.013 731.806 122.256 731.187 122.744C730.568 123.231 730.099 123.906 729.781 124.769C729.463 125.632 729.304 126.632 729.304 127.769C729.304 128.915 729.463 129.927 729.781 130.808C730.108 131.679 730.576 132.363 731.187 132.859C731.806 133.346 732.567 133.59 733.469 133.59Z" fill="white" fill-opacity="0.9"/>
<path d="M654.98 314.744L650 297.239H654.02L656.901 309.402H657.045L660.223 297.239H663.665L666.835 309.427H666.988L669.869 297.239H673.888L668.909 314.744H665.322L662.008 303.299H661.872L658.566 314.744H654.98Z" fill="white" fill-opacity="0.9"/>
<path d="M680.336 315C678.994 315 677.838 314.726 676.869 314.179C675.906 313.627 675.164 312.846 674.643 311.838C674.121 310.823 673.861 309.624 673.861 308.239C673.861 306.889 674.121 305.704 674.643 304.684C675.164 303.664 675.898 302.869 676.844 302.299C677.796 301.729 678.912 301.444 680.192 301.444C681.053 301.444 681.855 301.584 682.597 301.863C683.345 302.137 683.996 302.55 684.552 303.103C685.112 303.655 685.549 304.35 685.86 305.188C686.172 306.02 686.328 306.994 686.328 308.111V309.111H675.306V306.855H682.92C682.92 306.33 682.807 305.866 682.58 305.462C682.353 305.057 682.039 304.741 681.637 304.513C681.24 304.279 680.778 304.162 680.252 304.162C679.702 304.162 679.215 304.291 678.79 304.547C678.371 304.798 678.042 305.137 677.804 305.564C677.566 305.986 677.444 306.456 677.439 306.974V309.12C677.439 309.769 677.558 310.33 677.796 310.803C678.039 311.276 678.382 311.641 678.824 311.897C679.266 312.154 679.79 312.282 680.396 312.282C680.798 312.282 681.166 312.225 681.501 312.111C681.835 311.997 682.121 311.826 682.359 311.598C682.597 311.37 682.778 311.091 682.903 310.761L686.251 310.983C686.081 311.792 685.733 312.499 685.206 313.103C684.685 313.701 684.011 314.168 683.183 314.504C682.362 314.835 681.413 315 680.336 315Z" fill="white" fill-opacity="0.9"/>
<path d="M688.758 314.744V297.239H692.378V303.821H692.489C692.648 303.467 692.877 303.108 693.177 302.744C693.483 302.373 693.88 302.066 694.367 301.821C694.86 301.57 695.472 301.444 696.203 301.444C697.154 301.444 698.033 301.695 698.837 302.197C699.642 302.692 700.285 303.442 700.766 304.444C701.248 305.442 701.489 306.692 701.489 308.197C701.489 309.661 701.253 310.897 700.783 311.906C700.319 312.909 699.684 313.67 698.88 314.188C698.081 314.701 697.186 314.957 696.194 314.957C695.492 314.957 694.894 314.84 694.401 314.607C693.914 314.373 693.514 314.08 693.203 313.726C692.891 313.368 692.653 313.006 692.489 312.641H692.327V314.744H688.758ZM692.302 308.179C692.302 308.96 692.41 309.641 692.625 310.222C692.84 310.803 693.152 311.256 693.56 311.581C693.968 311.9 694.463 312.06 695.047 312.06C695.636 312.06 696.135 311.897 696.543 311.573C696.951 311.242 697.259 310.786 697.469 310.205C697.684 309.618 697.792 308.943 697.792 308.179C697.792 307.422 697.687 306.755 697.477 306.179C697.268 305.604 696.959 305.154 696.551 304.829C696.143 304.504 695.642 304.342 695.047 304.342C694.458 304.342 693.959 304.499 693.551 304.812C693.149 305.125 692.84 305.57 692.625 306.145C692.41 306.721 692.302 307.399 692.302 308.179Z" fill="white" fill-opacity="0.9"/>
<path d="M710.303 314.983C709.034 314.983 707.904 314.764 706.913 314.325C705.927 313.88 705.148 313.271 704.576 312.496C704.009 311.715 703.717 310.815 703.7 309.795H707.405C707.428 310.222 707.567 310.598 707.822 310.923C708.082 311.242 708.428 311.49 708.859 311.667C709.289 311.843 709.774 311.932 710.312 311.932C710.873 311.932 711.368 311.832 711.799 311.632C712.23 311.433 712.567 311.157 712.81 310.803C713.054 310.45 713.176 310.043 713.176 309.581C713.176 309.114 713.045 308.701 712.785 308.342C712.53 307.977 712.162 307.692 711.68 307.487C711.204 307.282 710.638 307.179 709.98 307.179H708.357V304.462H709.98C710.536 304.462 711.026 304.365 711.451 304.171C711.881 303.977 712.215 303.709 712.453 303.368C712.691 303.02 712.81 302.615 712.81 302.154C712.81 301.715 712.705 301.33 712.496 301C712.292 300.664 712.003 300.402 711.629 300.214C711.261 300.026 710.83 299.932 710.337 299.932C709.839 299.932 709.383 300.023 708.969 300.205C708.556 300.382 708.224 300.635 707.975 300.966C707.726 301.296 707.592 301.684 707.575 302.128H704.049C704.066 301.12 704.352 300.231 704.907 299.462C705.462 298.692 706.21 298.091 707.15 297.658C708.097 297.219 709.165 297 710.354 297C711.555 297 712.606 297.219 713.507 297.658C714.408 298.097 715.108 298.689 715.606 299.436C716.11 300.177 716.36 301.009 716.354 301.932C716.36 302.912 716.057 303.729 715.445 304.385C714.839 305.04 714.048 305.456 713.074 305.632V305.769C714.354 305.934 715.329 306.382 715.997 307.111C716.671 307.835 717.006 308.741 717 309.829C717.006 310.826 716.719 311.712 716.142 312.487C715.569 313.262 714.779 313.872 713.771 314.316C712.762 314.761 711.606 314.983 710.303 314.983Z" fill="white" fill-opacity="0.9"/>
<path d="M489.376 83.1701C489.231 82.6597 489.029 82.2087 488.767 81.8171C488.506 81.4186 488.186 81.083 487.808 80.8103C487.437 80.5306 487.011 80.3174 486.529 80.1705C486.055 80.0237 485.529 79.9503 484.952 79.9503C483.872 79.9503 482.924 80.223 482.105 80.7684C481.294 81.3137 480.662 82.1073 480.208 83.1491C479.754 84.1839 479.527 85.4495 479.527 86.9457C479.527 88.442 479.751 89.7145 480.198 90.7633C480.644 91.8121 481.277 92.6127 482.095 93.1651C482.913 93.7104 483.879 93.9831 484.993 93.9831C486.004 93.9831 486.866 93.8013 487.581 93.4378C488.303 93.0672 488.853 92.5463 489.231 91.8751C489.616 91.2038 489.809 90.4102 489.809 89.4943L490.716 89.6306H485.271V86.2116H494.109V88.9175C494.109 90.8053 493.717 92.4274 492.934 93.7839C492.15 95.1333 491.07 96.1751 489.695 96.9093C488.32 97.6364 486.746 98 484.972 98C482.992 98 481.253 97.556 479.754 96.668C478.255 95.7731 477.087 94.504 476.248 92.8609C475.416 91.2108 475 89.2531 475 86.9877C475 85.2467 475.248 83.6945 475.743 82.3311C476.244 80.9606 476.946 79.8 477.846 78.8491C478.747 77.8982 479.795 77.1745 480.992 76.6781C482.188 76.1816 483.484 75.9334 484.879 75.9334C486.076 75.9334 487.189 76.1117 488.221 76.4683C489.252 76.8179 490.166 77.3143 490.964 77.9576C491.768 78.6009 492.425 79.3665 492.934 80.2544C493.442 81.1354 493.769 82.1073 493.913 83.1701H489.376Z" fill="white"/>
<path d="M498.374 97.7063V81.5969H502.767V97.7063H498.374ZM500.58 79.5203C499.927 79.5203 499.367 79.3 498.899 78.8596C498.439 78.4121 498.209 77.8772 498.209 77.2549C498.209 76.6396 498.439 76.1117 498.899 75.6712C499.367 75.2237 499.927 75 500.58 75C501.234 75 501.79 75.2237 502.251 75.6712C502.719 76.1117 502.952 76.6396 502.952 77.2549C502.952 77.8772 502.719 78.4121 502.251 78.8596C501.79 79.3 501.234 79.5203 500.58 79.5203Z" fill="white"/>
<path d="M514.711 81.5969V84.953H505.172V81.5969H514.711ZM507.338 77.7373H511.731V92.756C511.731 93.1686 511.793 93.4902 511.917 93.7209C512.04 93.9447 512.212 94.102 512.432 94.1929C512.659 94.2838 512.92 94.3292 513.216 94.3292C513.422 94.3292 513.628 94.3117 513.835 94.2768C514.041 94.2348 514.199 94.2034 514.309 94.1824L515 97.5071C514.78 97.577 514.471 97.6574 514.072 97.7483C513.673 97.8462 513.188 97.9056 512.618 97.9266C511.559 97.9685 510.631 97.8252 509.833 97.4966C509.043 97.168 508.427 96.6575 507.987 95.9653C507.547 95.2731 507.331 94.3991 507.338 93.3434V77.7373Z" fill="white"/>
<path d="M306.452 114.781H303L308.259 99.8528H312.41L317.662 114.781H314.21L310.394 103.264H310.275L306.452 114.781ZM306.236 108.913H314.389V111.377H306.236V108.913Z" fill="white" fill-opacity="0.9"/>
<path d="M326.763 110.014V103.585H329.932V114.781H326.89V112.748H326.771C326.513 113.404 326.084 113.931 325.484 114.329C324.889 114.728 324.162 114.927 323.304 114.927C322.54 114.927 321.868 114.757 321.288 114.417C320.708 114.077 320.254 113.593 319.927 112.966C319.605 112.339 319.441 111.589 319.436 110.714V103.585H322.605V110.16C322.61 110.821 322.791 111.343 323.148 111.727C323.505 112.111 323.984 112.303 324.584 112.303C324.965 112.303 325.322 112.218 325.655 112.048C325.987 111.873 326.255 111.615 326.458 111.275C326.666 110.935 326.768 110.515 326.763 110.014Z" fill="white" fill-opacity="0.9"/>
<path d="M338.544 103.585V105.918H331.663V103.585H338.544ZM333.226 100.903H336.394V111.341C336.394 111.627 336.439 111.851 336.528 112.011C336.618 112.167 336.742 112.276 336.9 112.339C337.064 112.403 337.252 112.434 337.466 112.434C337.614 112.434 337.763 112.422 337.912 112.398C338.061 112.369 338.175 112.347 338.254 112.332L338.753 114.643C338.594 114.691 338.371 114.747 338.083 114.81C337.795 114.879 337.446 114.92 337.034 114.934C336.27 114.964 335.601 114.864 335.026 114.636C334.455 114.407 334.012 114.052 333.694 113.571C333.377 113.09 333.221 112.483 333.226 111.749V100.903Z" fill="white" fill-opacity="0.9"/>
<path d="M344.023 108.308V114.781H340.854V99.8528H343.934V105.56H344.068C344.325 104.899 344.742 104.382 345.317 104.008C345.893 103.629 346.614 103.439 347.482 103.439C348.275 103.439 348.967 103.609 349.557 103.949C350.152 104.285 350.614 104.768 350.941 105.4C351.273 106.027 351.437 106.778 351.432 107.652V114.781H348.263V108.206C348.268 107.516 348.089 106.979 347.727 106.595C347.37 106.212 346.869 106.02 346.225 106.02C345.793 106.02 345.411 106.109 345.079 106.289C344.752 106.469 344.494 106.732 344.306 107.077C344.122 107.417 344.028 107.827 344.023 108.308Z" fill="white" fill-opacity="0.9"/>
<path d="M359.133 115C357.958 115 356.946 114.767 356.098 114.3C355.255 113.829 354.605 113.163 354.149 112.303C353.693 111.438 353.465 110.415 353.465 109.234C353.465 108.082 353.693 107.072 354.149 106.202C354.605 105.332 355.247 104.654 356.076 104.168C356.909 103.682 357.886 103.439 359.006 103.439C359.76 103.439 360.462 103.558 361.112 103.796C361.766 104.03 362.337 104.382 362.823 104.853C363.314 105.325 363.695 105.918 363.968 106.632C364.241 107.341 364.377 108.172 364.377 109.125V109.978H354.729V108.053H361.394C361.394 107.606 361.295 107.21 361.097 106.865C360.898 106.52 360.623 106.25 360.271 106.056C359.924 105.857 359.52 105.757 359.059 105.757C358.577 105.757 358.151 105.867 357.779 106.085C357.412 106.299 357.124 106.588 356.916 106.953C356.708 107.312 356.601 107.713 356.596 108.155V109.985C356.596 110.539 356.7 111.018 356.909 111.421C357.122 111.824 357.422 112.135 357.809 112.354C358.196 112.573 358.654 112.682 359.185 112.682C359.537 112.682 359.859 112.633 360.152 112.536C360.445 112.439 360.695 112.293 360.903 112.099C361.112 111.904 361.27 111.666 361.379 111.385L364.31 111.574C364.162 112.264 363.857 112.867 363.395 113.382C362.939 113.892 362.349 114.291 361.625 114.577C360.906 114.859 360.075 115 359.133 115Z" fill="white" fill-opacity="0.9"/>
<path d="M369.614 108.308V114.781H366.445V103.585H369.465V105.56H369.599C369.852 104.909 370.276 104.394 370.871 104.015C371.466 103.631 372.188 103.439 373.036 103.439C373.829 103.439 374.521 103.609 375.111 103.949C375.702 104.29 376.16 104.776 376.488 105.407C376.815 106.034 376.979 106.783 376.979 107.652V114.781H373.81V108.206C373.815 107.521 373.636 106.987 373.274 106.603C372.912 106.214 372.414 106.02 371.779 106.02C371.352 106.02 370.975 106.109 370.648 106.289C370.326 106.469 370.073 106.732 369.889 107.077C369.711 107.417 369.619 107.827 369.614 108.308Z" fill="white" fill-opacity="0.9"/>
<path d="M385.554 103.585V105.918H378.673V103.585H385.554ZM380.235 100.903H383.404V111.341C383.404 111.627 383.448 111.851 383.538 112.011C383.627 112.167 383.751 112.276 383.91 112.339C384.073 112.403 384.262 112.434 384.475 112.434C384.624 112.434 384.772 112.422 384.921 112.398C385.07 112.369 385.184 112.347 385.263 112.332L385.762 114.643C385.603 114.691 385.38 114.747 385.092 114.81C384.805 114.879 384.455 114.92 384.043 114.934C383.28 114.964 382.61 114.864 382.035 114.636C381.465 114.407 381.021 114.052 380.703 113.571C380.386 113.09 380.23 112.483 380.235 111.749V100.903Z" fill="white" fill-opacity="0.9"/>
<path d="M387.618 114.781V103.585H390.787V114.781H387.618ZM389.21 102.142C388.739 102.142 388.334 101.989 387.997 101.682C387.665 101.371 387.499 101 387.499 100.567C387.499 100.14 387.665 99.7727 387.997 99.4665C388.334 99.1555 388.739 99 389.21 99C389.681 99 390.083 99.1555 390.415 99.4665C390.752 99.7727 390.921 100.14 390.921 100.567C390.921 101 390.752 101.371 390.415 101.682C390.083 101.989 389.681 102.142 389.21 102.142Z" fill="white" fill-opacity="0.9"/>
<path d="M398.488 115C397.317 115 396.311 114.757 395.468 114.271C394.629 113.78 393.985 113.1 393.533 112.23C393.087 111.36 392.864 110.359 392.864 109.227C392.864 108.08 393.09 107.074 393.541 106.209C393.997 105.339 394.644 104.661 395.482 104.175C396.321 103.685 397.317 103.439 398.473 103.439C399.47 103.439 400.342 103.617 401.091 103.971C401.84 104.326 402.433 104.824 402.869 105.466C403.306 106.107 403.546 106.86 403.591 107.725H400.6C400.516 107.166 400.293 106.717 399.931 106.377C399.574 106.032 399.105 105.859 398.525 105.859C398.034 105.859 397.605 105.99 397.238 106.253C396.876 106.51 396.593 106.887 396.39 107.383C396.187 107.878 396.085 108.479 396.085 109.183C396.085 109.897 396.184 110.505 396.383 111.005C396.586 111.506 396.871 111.887 397.238 112.15C397.605 112.412 398.034 112.544 398.525 112.544C398.887 112.544 399.212 112.471 399.499 112.325C399.792 112.179 400.032 111.968 400.221 111.691C400.414 111.409 400.541 111.071 400.6 110.677H403.591C403.541 111.533 403.303 112.286 402.877 112.937C402.455 113.583 401.872 114.089 401.128 114.453C400.385 114.818 399.504 115 398.488 115Z" fill="white" fill-opacity="0.9"/>
<path d="M408.878 114.993C408.149 114.993 407.499 114.869 406.929 114.621C406.359 114.368 405.907 113.997 405.575 113.506C405.248 113.01 405.084 112.393 405.084 111.654C405.084 111.032 405.201 110.51 405.434 110.087C405.667 109.664 405.984 109.324 406.386 109.067C406.788 108.809 407.244 108.615 407.755 108.483C408.27 108.352 408.811 108.26 409.376 108.206C410.041 108.138 410.576 108.075 410.983 108.017C411.39 107.954 411.685 107.861 411.868 107.74C412.052 107.618 412.143 107.439 412.143 107.2V107.157C412.143 106.695 411.995 106.338 411.697 106.085C411.405 105.832 410.988 105.706 410.447 105.706C409.877 105.706 409.423 105.83 409.086 106.078C408.749 106.321 408.526 106.627 408.417 106.996L405.486 106.763C405.635 106.083 405.927 105.495 406.364 104.999C406.8 104.499 407.363 104.115 408.052 103.847C408.746 103.575 409.55 103.439 410.462 103.439C411.097 103.439 411.705 103.512 412.285 103.658C412.87 103.804 413.388 104.03 413.839 104.336C414.296 104.642 414.655 105.036 414.918 105.517C415.181 105.993 415.312 106.564 415.312 107.23V114.781H412.307V113.229H412.218C412.034 113.579 411.789 113.887 411.481 114.154C411.174 114.417 410.804 114.623 410.373 114.774C409.942 114.92 409.443 114.993 408.878 114.993ZM409.785 112.85C410.251 112.85 410.663 112.76 411.02 112.58C411.377 112.395 411.657 112.147 411.861 111.836C412.064 111.525 412.166 111.173 412.166 110.779V109.591C412.067 109.655 411.93 109.713 411.757 109.766C411.588 109.815 411.397 109.861 411.184 109.905C410.971 109.944 410.757 109.98 410.544 110.014C410.331 110.043 410.137 110.07 409.964 110.094C409.592 110.148 409.267 110.233 408.989 110.349C408.712 110.466 408.496 110.624 408.342 110.823C408.188 111.018 408.112 111.261 408.112 111.552C408.112 111.975 408.268 112.298 408.58 112.522C408.898 112.74 409.299 112.85 409.785 112.85Z" fill="white" fill-opacity="0.9"/>
<path d="M423.848 103.585V105.918H416.967V103.585H423.848ZM418.53 100.903H421.699V111.341C421.699 111.627 421.743 111.851 421.832 112.011C421.922 112.167 422.046 112.276 422.204 112.339C422.368 112.403 422.556 112.434 422.77 112.434C422.918 112.434 423.067 112.422 423.216 112.398C423.365 112.369 423.479 112.347 423.558 112.332L424.057 114.643C423.898 114.691 423.675 114.747 423.387 114.81C423.099 114.879 422.75 114.92 422.338 114.934C421.575 114.964 420.905 114.864 420.33 114.636C419.759 114.407 419.316 114.052 418.998 113.571C418.681 113.09 418.525 112.483 418.53 111.749V100.903Z" fill="white" fill-opacity="0.9"/>
<path d="M425.913 114.781V103.585H429.081V114.781H425.913ZM427.504 102.142C427.033 102.142 426.629 101.989 426.292 101.682C425.96 101.371 425.794 101 425.794 100.567C425.794 100.14 425.96 99.7727 426.292 99.4665C426.629 99.1555 427.033 99 427.504 99C427.976 99 428.377 99.1555 428.71 99.4665C429.047 99.7727 429.215 100.14 429.215 100.567C429.215 101 429.047 101.371 428.71 101.682C428.377 101.989 427.976 102.142 427.504 102.142Z" fill="white" fill-opacity="0.9"/>
<path d="M436.782 115C435.627 115 434.628 114.759 433.785 114.278C432.947 113.792 432.299 113.117 431.843 112.252C431.387 111.382 431.159 110.374 431.159 109.227C431.159 108.07 431.387 107.06 431.843 106.195C432.299 105.325 432.947 104.649 433.785 104.168C434.628 103.682 435.627 103.439 436.782 103.439C437.938 103.439 438.935 103.682 439.773 104.168C440.616 104.649 441.266 105.325 441.722 106.195C442.178 107.06 442.406 108.07 442.406 109.227C442.406 110.374 442.178 111.382 441.722 112.252C441.266 113.117 440.616 113.792 439.773 114.278C438.935 114.759 437.938 115 436.782 115ZM436.797 112.595C437.323 112.595 437.762 112.449 438.114 112.157C438.466 111.861 438.731 111.457 438.91 110.947C439.093 110.437 439.185 109.856 439.185 109.205C439.185 108.554 439.093 107.973 438.91 107.463C438.731 106.953 438.466 106.549 438.114 106.253C437.762 105.956 437.323 105.808 436.797 105.808C436.267 105.808 435.82 105.956 435.458 106.253C435.101 106.549 434.831 106.953 434.648 107.463C434.469 107.973 434.38 108.554 434.38 109.205C434.38 109.856 434.469 110.437 434.648 110.947C434.831 111.457 435.101 111.861 435.458 112.157C435.82 112.449 436.267 112.595 436.797 112.595Z" fill="white" fill-opacity="0.9"/>
<path d="M447.636 108.308V114.781H444.467V103.585H447.487V105.56H447.621C447.874 104.909 448.298 104.394 448.893 104.015C449.488 103.631 450.209 103.439 451.057 103.439C451.851 103.439 452.543 103.609 453.133 103.949C453.723 104.29 454.182 104.776 454.509 105.407C454.836 106.034 455 106.783 455 107.652V114.781H451.831V108.206C451.836 107.521 451.658 106.987 451.295 106.603C450.933 106.214 450.435 106.02 449.8 106.02C449.374 106.02 448.997 106.109 448.67 106.289C448.347 106.469 448.094 106.732 447.911 107.077C447.732 107.417 447.641 107.827 447.636 108.308Z" fill="white" fill-opacity="0.9"/>
<path d="M620.567 187L591 187L591 175.774C591 173.625 591.399 171.791 592.198 170.272C592.987 168.744 594.109 167.582 595.562 166.785C597.006 165.979 598.705 165.576 600.658 165.576C602.622 165.576 604.311 165.984 605.726 166.799C607.131 167.614 608.209 168.795 608.96 170.342C609.71 171.879 610.086 173.741 610.086 175.927L610.086 183.443L605.062 183.443L605.062 176.899C605.062 175.751 604.898 174.797 604.571 174.037C604.244 173.278 603.753 172.713 603.098 172.342C602.444 171.963 601.63 171.773 600.658 171.773C599.677 171.773 598.849 171.963 598.175 172.342C597.501 172.713 596.991 173.283 596.645 174.051C596.289 174.811 596.111 175.769 596.111 176.927L596.111 180.984L620.567 180.984L620.567 187ZM607.112 171.634L620.567 164.562L620.567 171.203L607.112 178.122L607.112 171.634Z" fill="white"/>
<path d="M621 152.055C621 154.25 620.538 156.139 619.614 157.723C618.68 159.298 617.362 160.511 615.658 161.363C613.945 162.215 611.919 162.641 609.58 162.641C607.299 162.641 605.297 162.215 603.575 161.363C601.852 160.511 600.509 159.312 599.547 157.765C598.584 156.209 598.103 154.384 598.103 152.291C598.103 150.883 598.339 149.572 598.81 148.359C599.272 147.136 599.97 146.071 600.904 145.163C601.837 144.246 603.012 143.533 604.426 143.024C605.832 142.514 607.477 142.26 609.364 142.26L611.053 142.26L611.053 160.279L607.242 160.279L607.242 147.831C606.356 147.831 605.572 148.016 604.888 148.387C604.205 148.757 603.671 149.271 603.286 149.929C602.891 150.577 602.694 151.332 602.694 152.193C602.694 153.092 602.91 153.888 603.344 154.583C603.767 155.269 604.34 155.806 605.062 156.195C605.774 156.584 606.568 156.783 607.444 156.792L611.067 156.792C612.165 156.792 613.113 156.598 613.911 156.209C614.71 155.81 615.326 155.25 615.759 154.528C616.192 153.805 616.409 152.948 616.409 151.957C616.409 151.3 616.313 150.698 616.12 150.151C615.928 149.605 615.639 149.137 615.254 148.748C614.869 148.359 614.397 148.062 613.839 147.859L614.215 142.385C615.581 142.663 616.775 143.232 617.795 144.094C618.806 144.946 619.595 146.048 620.163 147.4C620.721 148.743 621 150.295 621 152.055Z" fill="white"/>
<path d="M620.986 132.312C620.986 133.673 620.74 134.887 620.249 135.952C619.749 137.017 619.013 137.86 618.04 138.481C617.059 139.092 615.836 139.398 614.373 139.398C613.141 139.398 612.107 139.18 611.269 138.745C610.432 138.309 609.758 137.716 609.248 136.966C608.738 136.216 608.353 135.364 608.093 134.41C607.833 133.447 607.651 132.437 607.545 131.381C607.41 130.14 607.285 129.14 607.169 128.38C607.044 127.621 606.861 127.069 606.621 126.727C606.38 126.384 606.024 126.213 605.552 126.213L605.466 126.213C604.551 126.213 603.844 126.491 603.344 127.046C602.843 127.593 602.593 128.371 602.593 129.38C602.593 130.446 602.838 131.293 603.329 131.923C603.81 132.553 604.417 132.97 605.148 133.173L604.686 138.647C603.339 138.369 602.174 137.823 601.192 137.008C600.201 136.193 599.441 135.142 598.911 133.854C598.372 132.557 598.103 131.057 598.103 129.353C598.103 128.167 598.247 127.032 598.536 125.949C598.825 124.856 599.272 123.888 599.879 123.045C600.485 122.193 601.265 121.521 602.218 121.03C603.161 120.54 604.292 120.294 605.61 120.294L620.567 120.294L620.567 125.907L617.492 125.907L617.492 126.074C618.185 126.416 618.796 126.875 619.325 127.449C619.845 128.024 620.254 128.714 620.552 129.519C620.841 130.325 620.986 131.256 620.986 132.312ZM616.741 130.617C616.741 129.746 616.563 128.978 616.207 128.311C615.841 127.644 615.35 127.12 614.734 126.741C614.118 126.361 613.421 126.171 612.641 126.171L610.288 126.171C610.413 126.356 610.528 126.611 610.634 126.935C610.731 127.25 610.822 127.607 610.909 128.005C610.986 128.403 611.058 128.802 611.125 129.2C611.183 129.598 611.236 129.959 611.284 130.284C611.39 130.978 611.558 131.585 611.789 132.104C612.02 132.622 612.333 133.025 612.728 133.312C613.113 133.599 613.594 133.743 614.171 133.743C615.009 133.743 615.649 133.451 616.091 132.868C616.525 132.275 616.741 131.525 616.741 130.617Z" fill="white"/>
<path d="M621 106.06C621 108.246 620.519 110.126 619.556 111.701C618.584 113.266 617.237 114.47 615.514 115.313C613.791 116.147 611.808 116.564 609.566 116.564C607.295 116.564 605.302 116.142 603.589 115.299C601.866 114.447 600.524 113.239 599.561 111.673C598.589 110.108 598.103 108.246 598.103 106.088C598.103 104.226 598.454 102.596 599.157 101.198C599.859 99.799 600.846 98.6921 602.116 97.8771C603.387 97.062 604.879 96.6127 606.592 96.5294L606.592 102.115C605.485 102.272 604.595 102.689 603.921 103.365C603.238 104.032 602.896 104.907 602.896 105.991C602.896 106.908 603.156 107.709 603.676 108.394C604.186 109.071 604.932 109.598 605.913 109.978C606.895 110.358 608.084 110.548 609.479 110.548C610.894 110.548 612.097 110.363 613.089 109.992C614.08 109.612 614.835 109.08 615.355 108.394C615.875 107.709 616.135 106.908 616.135 105.991C616.135 105.315 615.99 104.708 615.702 104.171C615.413 103.624 614.994 103.175 614.446 102.823C613.887 102.462 613.218 102.226 612.439 102.115L612.439 96.5294C614.133 96.622 615.625 97.0666 616.914 97.8632C618.194 98.6505 619.195 99.7388 619.917 101.128C620.639 102.517 621 104.162 621 106.06Z" fill="white"/>
<path d="M598.392 81.389L603.012 81.389L603.012 94.2404L598.392 94.2404L598.392 81.389ZM593.079 91.3228L593.079 85.4042L613.753 85.4042C614.32 85.4042 614.763 85.3209 615.081 85.1541C615.389 84.9874 615.605 84.7558 615.731 84.4595C615.856 84.1538 615.918 83.8018 615.918 83.4036C615.918 83.1257 615.894 82.8478 615.846 82.57C615.788 82.2921 615.745 82.0791 615.716 81.9309L620.293 81C620.389 81.2964 620.5 81.7132 620.625 82.2504C620.759 82.7876 620.841 83.4406 620.87 84.2094C620.928 85.6358 620.731 86.8862 620.278 87.9606C619.826 89.0258 619.123 89.8547 618.17 90.4475C617.218 91.0403 616.014 91.3321 614.561 91.3228L593.079 91.3228Z" fill="white"/>
<path d="M435.99 184.74H432L438.079 167.013H442.877L448.948 184.74H444.958L440.547 171.064H440.409L435.99 184.74ZM435.74 177.772H445.164V180.698H435.74V177.772Z" fill="#FAFAFA" fill-opacity="0.84"/>
<path d="M454.662 177.054V184.74H450.999V171.445H454.49V173.79H454.644C454.937 173.017 455.427 172.405 456.115 171.955C456.803 171.499 457.637 171.272 458.617 171.272C459.534 171.272 460.334 171.474 461.016 171.877C461.698 172.281 462.228 172.858 462.607 173.609C462.985 174.353 463.174 175.242 463.174 176.275V184.74H459.511V176.933C459.517 176.119 459.31 175.484 458.892 175.028C458.474 174.567 457.897 174.336 457.164 174.336C456.671 174.336 456.235 174.443 455.857 174.656C455.484 174.87 455.192 175.181 454.98 175.591C454.773 175.995 454.667 176.482 454.662 177.054Z" fill="#FAFAFA" fill-opacity="0.84"/>
<path d="M466.061 184.74V171.445H469.724V184.74H466.061ZM467.901 169.731C467.357 169.731 466.889 169.549 466.5 169.185C466.116 168.816 465.923 168.375 465.923 167.861C465.923 167.353 466.116 166.918 466.5 166.554C466.889 166.185 467.357 166 467.901 166C468.446 166 468.91 166.185 469.294 166.554C469.684 166.918 469.879 167.353 469.879 167.861C469.879 168.375 469.684 168.816 469.294 169.185C468.91 169.549 468.446 169.731 467.901 169.731Z" fill="#FAFAFA" fill-opacity="0.84"/>
<path d="M472.658 184.74V171.445H476.149V173.79H476.304C476.579 173.011 477.038 172.397 477.68 171.947C478.322 171.497 479.09 171.272 479.984 171.272C480.89 171.272 481.661 171.499 482.297 171.955C482.934 172.405 483.358 173.017 483.57 173.79H483.707C483.977 173.029 484.464 172.42 485.169 171.964C485.88 171.502 486.72 171.272 487.689 171.272C488.921 171.272 489.921 171.667 490.689 172.457C491.463 173.242 491.85 174.356 491.85 175.799V184.74H488.196V176.526C488.196 175.787 488.001 175.233 487.611 174.864C487.221 174.494 486.734 174.31 486.149 174.31C485.484 174.31 484.966 174.523 484.593 174.95C484.221 175.372 484.034 175.928 484.034 176.621V184.74H480.483V176.448C480.483 175.796 480.297 175.276 479.924 174.89C479.557 174.503 479.073 174.31 478.471 174.31C478.064 174.31 477.697 174.414 477.37 174.621C477.049 174.823 476.794 175.109 476.605 175.478C476.416 175.842 476.321 176.269 476.321 176.759V184.74H472.658Z" fill="#FAFAFA" fill-opacity="0.84"/>
<path d="M498.51 184.991C497.667 184.991 496.916 184.844 496.257 184.55C495.598 184.25 495.076 183.808 494.692 183.226C494.314 182.637 494.125 181.904 494.125 181.027C494.125 180.288 494.259 179.668 494.529 179.166C494.798 178.664 495.165 178.26 495.629 177.954C496.094 177.648 496.621 177.417 497.211 177.262C497.808 177.106 498.432 176.996 499.086 176.933C499.854 176.852 500.473 176.777 500.943 176.708C501.413 176.632 501.754 176.523 501.966 176.379C502.179 176.234 502.285 176.021 502.285 175.738V175.686C502.285 175.138 502.113 174.714 501.769 174.414C501.431 174.114 500.949 173.964 500.324 173.964C499.665 173.964 499.14 174.111 498.751 174.405C498.361 174.694 498.103 175.057 497.977 175.496L494.589 175.219C494.761 174.411 495.099 173.713 495.604 173.124C496.108 172.53 496.759 172.074 497.555 171.756C498.358 171.433 499.287 171.272 500.341 171.272C501.075 171.272 501.777 171.358 502.448 171.531C503.124 171.704 503.723 171.973 504.245 172.336C504.773 172.7 505.188 173.167 505.492 173.738C505.796 174.304 505.948 174.982 505.948 175.773V184.74H502.474V182.897H502.371C502.159 183.312 501.875 183.679 501.519 183.996C501.164 184.308 500.737 184.553 500.238 184.732C499.739 184.905 499.163 184.991 498.51 184.991ZM499.559 182.446C500.098 182.446 500.574 182.34 500.986 182.126C501.399 181.907 501.723 181.613 501.958 181.243C502.193 180.874 502.31 180.456 502.31 179.988V178.577C502.196 178.652 502.038 178.721 501.838 178.785C501.643 178.843 501.422 178.897 501.175 178.949C500.929 178.996 500.682 179.039 500.436 179.079C500.189 179.114 499.966 179.146 499.765 179.174C499.335 179.238 498.96 179.339 498.639 179.477C498.318 179.616 498.068 179.803 497.891 180.04C497.713 180.271 497.624 180.559 497.624 180.906C497.624 181.408 497.805 181.791 498.166 182.057C498.533 182.317 498.997 182.446 499.559 182.446Z" fill="#FAFAFA" fill-opacity="0.84"/>
<path d="M515.814 171.445V174.215H507.861V171.445H515.814ZM509.667 168.259H513.33V180.655C513.33 180.995 513.381 181.261 513.484 181.451C513.587 181.636 513.731 181.766 513.914 181.841C514.103 181.916 514.321 181.953 514.568 181.953C514.74 181.953 514.912 181.939 515.084 181.91C515.256 181.875 515.387 181.849 515.479 181.832L516.055 184.576C515.872 184.634 515.614 184.7 515.281 184.775C514.949 184.856 514.545 184.905 514.069 184.922C513.186 184.957 512.412 184.838 511.747 184.567C511.088 184.296 510.575 183.875 510.208 183.303C509.841 182.732 509.661 182.011 509.667 181.139V168.259Z" fill="#FAFAFA" fill-opacity="0.84"/>
<path d="M518.201 184.74V171.445H521.864V184.74H518.201ZM520.041 169.731C519.496 169.731 519.029 169.549 518.639 169.185C518.255 168.816 518.063 168.375 518.063 167.861C518.063 167.353 518.255 166.918 518.639 166.554C519.029 166.185 519.496 166 520.041 166C520.585 166 521.05 166.185 521.434 166.554C521.823 166.918 522.018 167.353 522.018 167.861C522.018 168.375 521.823 168.816 521.434 169.185C521.05 169.549 520.585 169.731 520.041 169.731Z" fill="#FAFAFA" fill-opacity="0.84"/>
<path d="M530.765 185C529.43 185 528.275 184.714 527.3 184.143C526.331 183.566 525.583 182.764 525.056 181.737C524.528 180.704 524.265 179.506 524.265 178.144C524.265 176.771 524.528 175.571 525.056 174.544C525.583 173.511 526.331 172.708 527.3 172.137C528.275 171.56 529.43 171.272 530.765 171.272C532.101 171.272 533.253 171.56 534.222 172.137C535.196 172.708 535.947 173.511 536.475 174.544C537.002 175.571 537.266 176.771 537.266 178.144C537.266 179.506 537.002 180.704 536.475 181.737C535.947 182.764 535.196 183.566 534.222 184.143C533.253 184.714 532.101 185 530.765 185ZM530.782 182.144C531.39 182.144 531.897 181.97 532.304 181.624C532.711 181.272 533.018 180.793 533.224 180.187C533.437 179.581 533.543 178.892 533.543 178.118C533.543 177.345 533.437 176.656 533.224 176.05C533.018 175.444 532.711 174.965 532.304 174.613C531.897 174.261 531.39 174.085 530.782 174.085C530.169 174.085 529.653 174.261 529.235 174.613C528.822 174.965 528.51 175.444 528.297 176.05C528.091 176.656 527.988 177.345 527.988 178.118C527.988 178.892 528.091 179.581 528.297 180.187C528.51 180.793 528.822 181.272 529.235 181.624C529.653 181.97 530.169 182.144 530.782 182.144Z" fill="#FAFAFA" fill-opacity="0.84"/>
<path d="M543.311 177.054V184.74H539.648V171.445H543.139V173.79H543.293C543.586 173.017 544.076 172.405 544.764 171.955C545.452 171.499 546.286 171.272 547.266 171.272C548.183 171.272 548.983 171.474 549.665 171.877C550.347 172.281 550.877 172.858 551.256 173.609C551.634 174.353 551.823 175.242 551.823 176.275V184.74H548.16V176.933C548.166 176.119 547.959 175.484 547.541 175.028C547.123 174.567 546.546 174.336 545.813 174.336C545.32 174.336 544.884 174.443 544.506 174.656C544.133 174.87 543.841 175.181 543.629 175.591C543.422 175.995 543.316 176.482 543.311 177.054Z" fill="#FAFAFA" fill-opacity="0.84"/>
<path d="M565.699 175.236L562.346 175.444C562.288 175.155 562.165 174.896 561.976 174.665C561.787 174.428 561.537 174.241 561.228 174.102C560.924 173.958 560.56 173.886 560.136 173.886C559.568 173.886 559.09 174.007 558.7 174.249C558.31 174.486 558.115 174.803 558.115 175.201C558.115 175.519 558.241 175.787 558.493 176.006C558.746 176.226 559.178 176.402 559.792 176.534L562.182 177.019C563.466 177.285 564.424 177.712 565.054 178.3C565.685 178.889 566 179.662 566 180.62C566 181.491 565.745 182.256 565.235 182.914C564.73 183.572 564.037 184.085 563.154 184.455C562.277 184.818 561.265 185 560.119 185C558.37 185 556.977 184.634 555.94 183.901C554.908 183.162 554.303 182.158 554.125 180.888L557.728 180.698C557.837 181.235 558.101 181.644 558.519 181.927C558.938 182.204 559.474 182.343 560.127 182.343C560.769 182.343 561.285 182.219 561.675 181.97C562.07 181.716 562.271 181.39 562.277 180.992C562.271 180.658 562.131 180.383 561.855 180.17C561.58 179.951 561.156 179.783 560.583 179.668L558.296 179.209C557.006 178.949 556.046 178.499 555.415 177.859C554.79 177.218 554.478 176.402 554.478 175.409C554.478 174.555 554.707 173.819 555.166 173.202C555.63 172.584 556.281 172.108 557.118 171.774C557.96 171.439 558.946 171.272 560.076 171.272C561.744 171.272 563.056 171.626 564.014 172.336C564.977 173.046 565.539 174.013 565.699 175.236Z" fill="#FAFAFA" fill-opacity="0.84"/>
<path d="M398.871 279.217H393L401.945 253H409.006L417.938 279.217H412.068L405.577 258.991H405.374L398.871 279.217ZM398.504 268.912H412.371V273.239H398.504V268.912Z" fill="white" fill-opacity="0.85"/>
<path d="M426.346 267.849V279.217H420.956V259.554H426.093V263.023H426.321C426.751 261.88 427.472 260.975 428.484 260.309C429.497 259.635 430.724 259.298 432.166 259.298C433.516 259.298 434.693 259.597 435.696 260.194C436.7 260.792 437.48 261.645 438.037 262.755C438.594 263.855 438.872 265.17 438.872 266.697V279.217H433.482V267.67C433.491 266.467 433.187 265.528 432.571 264.854C431.955 264.171 431.108 263.83 430.028 263.83C429.303 263.83 428.662 263.988 428.105 264.303C427.557 264.619 427.126 265.08 426.814 265.686C426.511 266.283 426.355 267.005 426.346 267.849Z" fill="white" fill-opacity="0.85"/>
<path d="M451.876 287C450.13 287 448.633 286.757 447.384 286.27C446.144 285.792 445.157 285.14 444.424 284.312C443.69 283.484 443.213 282.554 442.994 281.521L447.979 280.843C448.131 281.235 448.371 281.602 448.7 281.944C449.029 282.285 449.464 282.558 450.003 282.763C450.552 282.976 451.218 283.083 452.003 283.083C453.175 283.083 454.141 282.793 454.9 282.212C455.668 281.641 456.051 280.68 456.051 279.332V275.735H455.824C455.588 276.281 455.233 276.797 454.761 277.284C454.289 277.77 453.681 278.167 452.939 278.474C452.197 278.782 451.311 278.935 450.282 278.935C448.823 278.935 447.494 278.594 446.296 277.911C445.107 277.22 444.158 276.166 443.449 274.749C442.749 273.324 442.399 271.523 442.399 269.347C442.399 267.12 442.758 265.259 443.475 263.766C444.192 262.272 445.145 261.154 446.334 260.412C447.532 259.669 448.844 259.298 450.269 259.298C451.357 259.298 452.268 259.486 453.002 259.861C453.736 260.228 454.326 260.689 454.774 261.244C455.229 261.79 455.579 262.328 455.824 262.857H456.026V259.554H461.378V279.409C461.378 281.082 460.973 282.481 460.164 283.608C459.354 284.734 458.232 285.579 456.798 286.142C455.372 286.714 453.732 287 451.876 287ZM451.99 274.839C452.859 274.839 453.593 274.621 454.191 274.186C454.799 273.742 455.263 273.111 455.583 272.291C455.912 271.464 456.077 270.474 456.077 269.322C456.077 268.169 455.916 267.171 455.596 266.326C455.275 265.473 454.811 264.811 454.204 264.342C453.597 263.872 452.859 263.638 451.99 263.638C451.104 263.638 450.358 263.881 449.75 264.367C449.143 264.845 448.683 265.511 448.371 266.364C448.059 267.218 447.903 268.204 447.903 269.322C447.903 270.457 448.059 271.438 448.371 272.266C448.692 273.085 449.152 273.721 449.75 274.173C450.358 274.617 451.104 274.839 451.99 274.839Z" fill="white" fill-opacity="0.85"/>
<path d="M478.13 270.845V259.554H483.52V279.217H478.345V275.645H478.143C477.704 276.797 476.975 277.723 475.954 278.423C474.942 279.123 473.706 279.473 472.247 279.473C470.948 279.473 469.805 279.174 468.818 278.577C467.831 277.979 467.059 277.13 466.503 276.029C465.954 274.928 465.676 273.61 465.667 272.074V259.554H471.058V271.101C471.066 272.262 471.374 273.179 471.981 273.853C472.588 274.527 473.402 274.864 474.423 274.864C475.073 274.864 475.68 274.715 476.245 274.416C476.81 274.109 477.266 273.657 477.612 273.059C477.966 272.462 478.139 271.724 478.13 270.845Z" fill="white" fill-opacity="0.85"/>
<path d="M493.222 253V279.217H487.832V253H493.222Z" fill="white" fill-opacity="0.85"/>
<path d="M503.081 279.588C501.841 279.588 500.736 279.37 499.766 278.935C498.796 278.491 498.029 277.839 497.464 276.977C496.907 276.106 496.629 275.022 496.629 273.725C496.629 272.633 496.827 271.715 497.223 270.973C497.62 270.23 498.16 269.633 498.843 269.181C499.526 268.728 500.302 268.387 501.171 268.157C502.048 267.926 502.968 267.764 503.929 267.67C505.059 267.551 505.97 267.44 506.662 267.337C507.354 267.226 507.856 267.064 508.168 266.851C508.48 266.638 508.636 266.322 508.636 265.904V265.827C508.636 265.016 508.383 264.389 507.877 263.945C507.379 263.501 506.671 263.279 505.751 263.279C504.781 263.279 504.009 263.497 503.436 263.932C502.862 264.359 502.483 264.897 502.297 265.545L497.312 265.136C497.565 263.941 498.063 262.908 498.805 262.038C499.547 261.159 500.505 260.484 501.677 260.015C502.858 259.537 504.224 259.298 505.776 259.298C506.856 259.298 507.889 259.426 508.876 259.682C509.872 259.938 510.753 260.335 511.521 260.873C512.297 261.41 512.908 262.102 513.355 262.947C513.802 263.783 514.026 264.786 514.026 265.955V279.217H508.914V276.49H508.762C508.45 277.105 508.033 277.647 507.51 278.116C506.987 278.577 506.358 278.94 505.625 279.204C504.891 279.46 504.043 279.588 503.081 279.588ZM504.625 275.825C505.418 275.825 506.118 275.667 506.725 275.351C507.333 275.027 507.809 274.591 508.155 274.045C508.501 273.499 508.674 272.88 508.674 272.189V270.102C508.505 270.213 508.273 270.316 507.978 270.41C507.691 270.495 507.366 270.576 507.004 270.653C506.641 270.721 506.278 270.785 505.916 270.845C505.553 270.896 505.224 270.943 504.929 270.986C504.296 271.08 503.744 271.229 503.271 271.434C502.799 271.639 502.432 271.916 502.17 272.266C501.909 272.607 501.778 273.034 501.778 273.546C501.778 274.288 502.044 274.856 502.575 275.248C503.115 275.633 503.798 275.825 504.625 275.825Z" fill="white" fill-opacity="0.85"/>
<path d="M518.208 279.217V259.554H523.433V262.985H523.636C523.99 261.765 524.585 260.843 525.42 260.22C526.255 259.588 527.216 259.273 528.305 259.273C528.574 259.273 528.865 259.29 529.178 259.324C529.49 259.358 529.764 259.405 530 259.465V264.303C529.747 264.227 529.397 264.158 528.95 264.099C528.503 264.039 528.094 264.009 527.723 264.009C526.93 264.009 526.221 264.184 525.597 264.534C524.981 264.875 524.492 265.353 524.129 265.968C523.775 266.582 523.598 267.29 523.598 268.093V279.217H518.208Z" fill="white" fill-opacity="0.85"/>
<path d="M547 309.097L566.711 309.097L566.711 313.006L554.305 322.318L554.305 322.475L566.711 322.475L566.711 327L547 327L547 323.029L559.397 313.79L559.397 313.602L547 313.602L547 309.097Z" fill="white"/>
<path d="M567 298.189C567 299.813 566.682 301.217 566.047 302.401C565.406 303.579 564.514 304.488 563.372 305.129C562.223 305.77 560.892 306.09 559.377 306.09C557.85 306.09 556.516 305.77 555.373 305.129C554.225 304.488 553.333 303.579 552.698 302.401C552.056 301.217 551.735 299.813 551.735 298.189C551.735 296.566 552.056 295.165 552.698 293.988C553.333 292.804 554.225 291.891 555.373 291.25C556.516 290.609 557.85 290.288 559.377 290.288C560.892 290.288 562.223 290.609 563.372 291.25C564.514 291.891 565.406 292.804 566.047 293.988C566.682 295.165 567 296.566 567 298.189ZM563.824 298.168C563.824 297.43 563.631 296.813 563.246 296.319C562.855 295.824 562.322 295.451 561.649 295.2C560.975 294.943 560.208 294.814 559.348 294.814C558.489 294.814 557.722 294.943 557.048 295.2C556.374 295.451 555.842 295.824 555.45 296.319C555.059 296.813 554.863 297.43 554.863 298.168C554.863 298.914 555.059 299.541 555.45 300.05C555.842 300.551 556.374 300.931 557.048 301.189C557.722 301.44 558.489 301.565 559.348 301.565C560.208 301.565 560.975 301.44 561.649 301.189C562.322 300.931 562.855 300.551 563.246 300.05C563.631 299.541 563.824 298.914 563.824 298.168Z" fill="white"/>
<path d="M566.952 281.478C566.952 282.697 566.663 283.802 566.086 284.791C565.502 285.774 564.645 286.554 563.516 287.132C562.38 287.703 560.988 287.989 559.339 287.989C557.645 287.989 556.236 287.693 555.114 287.101C553.984 286.509 553.141 285.721 552.582 284.739C552.018 283.75 551.735 282.666 551.735 281.489C551.735 280.59 551.876 279.841 552.159 279.242C552.435 278.636 552.781 278.148 553.198 277.779C553.609 277.402 554.013 277.117 554.411 276.922L554.411 276.786L547 276.786L547 272.344L566.711 272.344L566.711 276.733L564.344 276.733L564.344 276.922C564.754 277.131 565.162 277.427 565.566 277.81C565.964 278.186 566.294 278.677 566.557 279.284C566.82 279.883 566.952 280.614 566.952 281.478ZM563.689 280.067C563.689 279.35 563.509 278.744 563.15 278.249C562.784 277.747 562.274 277.364 561.62 277.099C560.965 276.828 560.199 276.692 559.32 276.692C558.44 276.692 557.677 276.824 557.029 277.089C556.381 277.354 555.88 277.737 555.527 278.238C555.175 278.74 554.998 279.35 554.998 280.067C554.998 280.799 555.181 281.416 555.547 281.917C555.912 282.419 556.419 282.799 557.067 283.056C557.715 283.314 558.466 283.443 559.32 283.443C560.179 283.443 560.94 283.314 561.601 283.056C562.255 282.792 562.768 282.412 563.141 281.917C563.506 281.416 563.689 280.799 563.689 280.067Z" fill="white"/>
<path d="M567 261.368C567 263.019 566.692 264.441 566.076 265.632C565.454 266.816 564.575 267.729 563.439 268.37C562.297 269.011 560.946 269.332 559.387 269.332C557.866 269.332 556.532 269.011 555.383 268.37C554.235 267.729 553.339 266.827 552.698 265.663C552.056 264.493 551.735 263.12 551.735 261.546C551.735 260.487 551.893 259.501 552.207 258.588C552.515 257.668 552.98 256.867 553.603 256.184C554.225 255.494 555.008 254.958 555.951 254.575C556.888 254.192 557.985 254 559.243 254L560.369 254L560.369 267.555L557.828 267.555L557.828 258.191C557.237 258.191 556.714 258.33 556.259 258.609C555.803 258.888 555.447 259.274 555.191 259.769C554.927 260.257 554.796 260.824 554.796 261.472C554.796 262.148 554.94 262.747 555.229 263.27C555.511 263.786 555.893 264.19 556.374 264.482C556.849 264.775 557.379 264.925 557.962 264.932L560.378 264.932C561.11 264.932 561.742 264.785 562.274 264.493C562.807 264.193 563.218 263.772 563.506 263.228C563.795 262.685 563.939 262.04 563.939 261.295C563.939 260.8 563.875 260.347 563.747 259.936C563.619 259.525 563.426 259.173 563.169 258.881C562.913 258.588 562.598 258.365 562.226 258.212L562.476 254.094C563.388 254.303 564.183 254.732 564.863 255.38C565.537 256.021 566.063 256.85 566.442 257.867C566.814 258.877 567 260.044 567 261.368Z" fill="white"/>
<path d="M600 270.829V256H605.577C606.65 256 607.563 256.215 608.318 256.644C609.072 257.069 609.648 257.661 610.043 258.418C610.444 259.171 610.644 260.04 610.644 261.025C610.644 262.01 610.441 262.879 610.036 263.632C609.632 264.385 609.045 264.971 608.276 265.391C607.512 265.811 606.587 266.021 605.501 266.021H601.947V263.509H605.018C605.593 263.509 606.067 263.405 606.44 263.197C606.818 262.985 607.098 262.693 607.282 262.321C607.471 261.945 607.565 261.513 607.565 261.025C607.565 260.533 607.471 260.103 607.282 259.736C607.098 259.365 606.818 259.077 606.44 258.875C606.063 258.667 605.584 258.563 605.004 258.563H602.989V270.829H600Z" fill="white"/>
<path d="M615.471 264.399V270.829H612.53V256H615.388V261.67H615.512C615.751 261.013 616.138 260.499 616.672 260.127C617.205 259.751 617.875 259.562 618.68 259.562C619.417 259.562 620.059 259.731 620.606 260.069C621.158 260.402 621.586 260.883 621.89 261.51C622.198 262.133 622.35 262.879 622.346 263.748V270.829H619.405V264.298C619.41 263.613 619.244 263.079 618.908 262.698C618.577 262.316 618.112 262.126 617.514 262.126C617.113 262.126 616.759 262.215 616.451 262.394C616.147 262.572 615.908 262.833 615.733 263.176C615.563 263.514 615.475 263.921 615.471 264.399Z" fill="white"/>
<path d="M624.66 275V259.707H627.559V261.575H627.69C627.819 261.276 628.005 260.972 628.249 260.663C628.498 260.349 628.82 260.089 629.216 259.881C629.616 259.669 630.113 259.562 630.707 259.562C631.48 259.562 632.193 259.775 632.846 260.2C633.5 260.62 634.022 261.254 634.413 262.104C634.804 262.949 635 264.008 635 265.283C635 266.523 634.809 267.571 634.427 268.425C634.05 269.275 633.534 269.919 632.881 270.359C632.232 270.793 631.505 271.01 630.7 271.01C630.129 271.01 629.644 270.911 629.243 270.713C628.847 270.515 628.523 270.267 628.27 269.968C628.017 269.663 627.824 269.357 627.69 269.048H627.6V275H624.66ZM627.538 265.268C627.538 265.93 627.626 266.506 627.801 266.999C627.975 267.491 628.228 267.875 628.56 268.15C628.891 268.42 629.294 268.556 629.768 268.556C630.246 268.556 630.651 268.418 630.983 268.143C631.314 267.863 631.565 267.477 631.735 266.984C631.91 266.487 631.997 265.915 631.997 265.268C631.997 264.626 631.912 264.061 631.742 263.574C631.572 263.086 631.321 262.705 630.99 262.43C630.658 262.155 630.251 262.017 629.768 262.017C629.289 262.017 628.884 262.15 628.553 262.415C628.226 262.681 627.975 263.057 627.801 263.545C627.626 264.033 627.538 264.607 627.538 265.268Z" fill="white"/>
<path d="M349 146.666H352.339L355.866 156.206H356.017L359.544 146.666H362.883V160.865H360.256V151.623H360.15L356.836 160.795H355.047L351.733 151.588H351.627V160.865H349V146.666Z" fill="white"/>
<path d="M365.114 160.865V146.666H367.822V158.389H373.312V160.865H365.114Z" fill="white"/>
<path d="M384.71 146L380.582 163H378.287L382.415 146H384.71Z" fill="white"/>
<path d="M392.327 160.865H389.425L393.846 146.666H397.336L401.751 160.865H398.849L395.641 149.91H395.541L392.327 160.865ZM392.145 155.283H398.999V157.627H392.145V155.283Z" fill="white"/>
<path d="M406 146.666V160.865H403.292V146.666H406Z" fill="white"/>
<path d="M745.763 278.224C745.697 277.541 745.412 277.011 744.909 276.632C744.406 276.254 743.723 276.065 742.86 276.065C742.274 276.065 741.779 276.15 741.375 276.319C740.971 276.483 740.662 276.711 740.446 277.005C740.236 277.298 740.131 277.631 740.131 278.004C740.12 278.314 740.183 278.585 740.322 278.817C740.465 279.048 740.662 279.249 740.911 279.418C741.159 279.582 741.447 279.726 741.773 279.85C742.1 279.968 742.448 280.07 742.818 280.155L744.345 280.527C745.086 280.697 745.766 280.922 746.385 281.205C747.005 281.487 747.541 281.834 747.994 282.246C748.448 282.658 748.799 283.143 749.048 283.702C749.302 284.261 749.432 284.902 749.438 285.624C749.432 286.686 749.167 287.606 748.641 288.385C748.122 289.158 747.37 289.759 746.385 290.188C745.406 290.611 744.226 290.823 742.843 290.823C741.472 290.823 740.277 290.609 739.26 290.18C738.248 289.751 737.457 289.116 736.888 288.275C736.324 287.428 736.028 286.381 736 285.133H739.476C739.514 285.715 739.677 286.2 739.965 286.59C740.258 286.973 740.648 287.264 741.135 287.462C741.627 287.654 742.182 287.75 742.802 287.75C743.41 287.75 743.938 287.659 744.386 287.479C744.84 287.298 745.191 287.047 745.44 286.725C745.688 286.403 745.813 286.034 745.813 285.616C745.813 285.226 745.7 284.899 745.473 284.634C745.252 284.368 744.925 284.143 744.494 283.956C744.068 283.77 743.546 283.601 742.926 283.448L741.077 282.974C739.644 282.619 738.513 282.063 737.684 281.306C736.854 280.55 736.442 279.531 736.448 278.25C736.442 277.2 736.716 276.282 737.269 275.498C737.828 274.713 738.594 274.101 739.567 273.66C740.54 273.22 741.646 273 742.885 273C744.146 273 745.246 273.22 746.186 273.66C747.132 274.101 747.867 274.713 748.393 275.498C748.918 276.282 749.189 277.191 749.206 278.224H745.763Z" fill="white"/>
<path d="M758.266 284.549H761.318L762.853 286.564L764.362 288.359L767.208 292H763.856L761.899 289.545L760.895 288.088L758.266 284.549ZM767.465 281.907C767.465 283.798 767.114 285.407 766.411 286.734C765.715 288.06 764.763 289.073 763.558 289.773C762.358 290.467 761.009 290.815 759.51 290.815C758 290.815 756.645 290.465 755.445 289.765C754.245 289.065 753.297 288.052 752.6 286.725C751.903 285.399 751.555 283.793 751.555 281.907C751.555 280.016 751.903 278.408 752.6 277.081C753.297 275.755 754.245 274.744 755.445 274.05C756.645 273.35 758 273 759.51 273C761.009 273 762.358 273.35 763.558 274.05C764.763 274.744 765.715 275.755 766.411 277.081C767.114 278.408 767.465 280.016 767.465 281.907ZM763.823 281.907C763.823 280.682 763.644 279.649 763.284 278.808C762.93 277.967 762.43 277.329 761.783 276.895C761.136 276.46 760.378 276.243 759.51 276.243C758.642 276.243 757.884 276.46 757.237 276.895C756.59 277.329 756.087 277.967 755.727 278.808C755.374 279.649 755.197 280.682 755.197 281.907C755.197 283.132 755.374 284.165 755.727 285.006C756.087 285.847 756.59 286.485 757.237 286.92C757.884 287.354 758.642 287.572 759.51 287.572C760.378 287.572 761.136 287.354 761.783 286.92C762.43 286.485 762.93 285.847 763.284 285.006C763.644 284.165 763.823 283.132 763.823 281.907Z" fill="white"/>
<path d="M770.125 290.578V273.237H773.717V287.555H781V290.578H770.125Z" fill="white"/>
<path d="M745.763 278.224C745.697 277.541 745.412 277.011 744.909 276.632C744.406 276.254 743.723 276.065 742.86 276.065C742.274 276.065 741.779 276.15 741.375 276.319C740.971 276.483 740.662 276.711 740.446 277.005C740.236 277.298 740.131 277.631 740.131 278.004C740.12 278.314 740.183 278.585 740.322 278.817C740.465 279.048 740.662 279.249 740.911 279.418C741.159 279.582 741.447 279.726 741.773 279.85C742.1 279.968 742.448 280.07 742.818 280.155L744.345 280.527C745.086 280.697 745.766 280.922 746.385 281.205C747.005 281.487 747.541 281.834 747.994 282.246C748.448 282.658 748.799 283.143 749.048 283.702C749.302 284.261 749.432 284.902 749.438 285.624C749.432 286.686 749.167 287.606 748.641 288.385C748.122 289.158 747.37 289.759 746.385 290.188C745.406 290.611 744.226 290.823 742.843 290.823C741.472 290.823 740.277 290.609 739.26 290.18C738.248 289.751 737.457 289.116 736.888 288.275C736.324 287.428 736.028 286.381 736 285.133H739.476C739.514 285.715 739.677 286.2 739.965 286.59C740.258 286.973 740.648 287.264 741.135 287.462C741.627 287.654 742.182 287.75 742.802 287.75C743.41 287.75 743.938 287.659 744.386 287.479C744.84 287.298 745.191 287.047 745.44 286.725C745.688 286.403 745.813 286.034 745.813 285.616C745.813 285.226 745.7 284.899 745.473 284.634C745.252 284.368 744.925 284.143 744.494 283.956C744.068 283.77 743.546 283.601 742.926 283.448L741.076 282.974C739.644 282.619 738.513 282.063 737.684 281.306C736.854 280.55 736.442 279.531 736.448 278.25C736.442 277.2 736.716 276.282 737.269 275.498C737.828 274.713 738.594 274.101 739.567 273.66C740.54 273.22 741.646 273 742.885 273C744.146 273 745.246 273.22 746.186 273.66C747.132 274.101 747.867 274.713 748.393 275.498C748.918 276.282 749.189 277.191 749.206 278.224H745.763Z" fill="white"/>
<path d="M758.266 284.549H761.318L762.853 286.564L764.362 288.359L767.208 292H763.856L761.899 289.545L760.895 288.088L758.266 284.549ZM767.465 281.907C767.465 283.798 767.114 285.407 766.411 286.734C765.715 288.06 764.763 289.073 763.558 289.773C762.358 290.467 761.009 290.815 759.51 290.815C758 290.815 756.645 290.465 755.445 289.765C754.245 289.065 753.297 288.052 752.6 286.725C751.903 285.399 751.555 283.793 751.555 281.907C751.555 280.016 751.903 278.408 752.6 277.081C753.297 275.755 754.245 274.744 755.445 274.05C756.645 273.35 758 273 759.51 273C761.009 273 762.358 273.35 763.558 274.05C764.763 274.744 765.715 275.755 766.411 277.081C767.114 278.408 767.465 280.016 767.465 281.907ZM763.823 281.907C763.823 280.682 763.644 279.649 763.284 278.808C762.93 277.967 762.43 277.329 761.783 276.895C761.136 276.46 760.378 276.243 759.51 276.243C758.642 276.243 757.884 276.46 757.237 276.895C756.59 277.329 756.087 277.967 755.727 278.808C755.374 279.649 755.197 280.682 755.197 281.907C755.197 283.132 755.374 284.165 755.727 285.006C756.087 285.847 756.59 286.485 757.237 286.92C757.884 287.354 758.642 287.572 759.51 287.572C760.378 287.572 761.136 287.354 761.783 286.92C762.43 286.485 762.93 285.847 763.284 285.006C763.644 284.165 763.823 283.132 763.823 281.907Z" fill="white"/>
<path d="M770.125 290.578V273.237H773.717V287.555H781V290.578H770.125Z" fill="white"/>
<path d="M735 213.488V201H740.022C740.987 201 741.81 201.181 742.489 201.543C743.169 201.9 743.687 202.398 744.043 203.037C744.403 203.671 744.584 204.402 744.584 205.232C744.584 206.061 744.401 206.793 744.037 207.427C743.672 208.061 743.144 208.555 742.452 208.909C741.764 209.262 740.931 209.439 739.953 209.439H736.753V207.323H739.518C740.036 207.323 740.463 207.236 740.799 207.061C741.138 206.882 741.391 206.636 741.557 206.323C741.727 206.006 741.812 205.642 741.812 205.232C741.812 204.817 741.727 204.455 741.557 204.146C741.391 203.833 741.138 203.591 740.799 203.421C740.459 203.246 740.028 203.159 739.506 203.159H737.691V213.488H735Z" fill="white"/>
<path d="M747.917 217C747.581 217 747.266 216.974 746.972 216.921C746.682 216.872 746.441 216.809 746.251 216.732L746.848 214.793C747.158 214.886 747.438 214.937 747.687 214.945C747.939 214.953 748.157 214.896 748.339 214.774C748.526 214.652 748.677 214.445 748.793 214.152L748.948 213.756L745.524 204.122H748.308L750.284 211H750.384L752.379 204.122H755.182L751.472 214.5C751.293 215.004 751.051 215.443 750.744 215.817C750.442 216.195 750.059 216.486 749.595 216.689C749.131 216.896 748.571 217 747.917 217Z" fill="white"/>
<path d="M761.615 204.122V206.073H755.866V204.122H761.615ZM757.171 201.878H759.818V210.61C759.818 210.85 759.856 211.037 759.93 211.171C760.005 211.301 760.109 211.392 760.241 211.445C760.378 211.498 760.535 211.524 760.713 211.524C760.838 211.524 760.962 211.514 761.086 211.494C761.211 211.47 761.306 211.451 761.372 211.439L761.789 213.372C761.656 213.413 761.47 213.459 761.229 213.512C760.989 213.569 760.697 213.604 760.353 213.616C759.715 213.64 759.156 213.557 758.675 213.366C758.198 213.175 757.828 212.878 757.562 212.476C757.297 212.073 757.167 211.565 757.171 210.951V201.878Z" fill="white"/>
<path d="M766.192 208.073V213.488H763.544V201H766.117V205.774H766.229C766.445 205.222 766.793 204.789 767.273 204.476C767.754 204.159 768.357 204 769.082 204C769.745 204 770.323 204.142 770.816 204.427C771.313 204.707 771.699 205.112 771.972 205.64C772.25 206.165 772.386 206.793 772.382 207.524V213.488H769.735V207.988C769.739 207.411 769.59 206.961 769.287 206.64C768.989 206.319 768.57 206.159 768.032 206.159C767.671 206.159 767.352 206.234 767.075 206.384C766.801 206.535 766.586 206.754 766.428 207.043C766.275 207.327 766.196 207.671 766.192 208.073Z" fill="white"/>
<path d="M778.779 213.671C777.814 213.671 776.979 213.47 776.275 213.067C775.574 212.661 775.034 212.096 774.652 211.372C774.271 210.644 774.081 209.801 774.081 208.841C774.081 207.874 774.271 207.028 774.652 206.305C775.034 205.577 775.574 205.012 776.275 204.61C776.979 204.203 777.814 204 778.779 204C779.745 204 780.577 204.203 781.278 204.61C781.982 205.012 782.525 205.577 782.906 206.305C783.287 207.028 783.478 207.874 783.478 208.841C783.478 209.801 783.287 210.644 782.906 211.372C782.525 212.096 781.982 212.661 781.278 213.067C780.577 213.47 779.745 213.671 778.779 213.671ZM778.792 211.659C779.231 211.659 779.598 211.537 779.892 211.293C780.186 211.045 780.408 210.707 780.557 210.28C780.71 209.854 780.787 209.368 780.787 208.823C780.787 208.278 780.71 207.793 780.557 207.366C780.408 206.939 780.186 206.602 779.892 206.354C779.598 206.106 779.231 205.982 778.792 205.982C778.348 205.982 777.975 206.106 777.673 206.354C777.375 206.602 777.149 206.939 776.995 207.366C776.846 207.793 776.772 208.278 776.772 208.823C776.772 209.368 776.846 209.854 776.995 210.28C777.149 210.707 777.375 211.045 777.673 211.293C777.975 211.537 778.348 211.659 778.792 211.659Z" fill="white"/>
<path d="M787.847 208.073V213.488H785.199V204.122H787.723V205.774H787.835C788.046 205.23 788.4 204.799 788.897 204.482C789.395 204.161 789.997 204 790.706 204C791.369 204 791.947 204.142 792.44 204.427C792.933 204.711 793.316 205.118 793.59 205.646C793.863 206.171 794 206.797 794 207.524V213.488H791.352V207.988C791.357 207.415 791.207 206.967 790.905 206.646C790.602 206.321 790.186 206.159 789.656 206.159C789.299 206.159 788.984 206.234 788.711 206.384C788.442 206.535 788.23 206.754 788.077 207.043C787.928 207.327 787.851 207.671 787.847 208.073Z" fill="white"/>
<path d="M787.517 118.046C787.057 118.094 786.7 118.296 786.446 118.655C786.191 119.013 786.064 119.5 786.064 120.114C786.064 120.532 786.121 120.884 786.235 121.172C786.345 121.459 786.499 121.68 786.696 121.833C786.894 121.983 787.118 122.058 787.369 122.058C787.578 122.066 787.761 122.02 787.916 121.922C788.072 121.82 788.207 121.68 788.321 121.502C788.431 121.325 788.528 121.12 788.612 120.888C788.692 120.656 788.76 120.408 788.817 120.144L789.068 119.057C789.182 118.529 789.334 118.044 789.524 117.603C789.714 117.162 789.948 116.78 790.225 116.457C790.503 116.134 790.829 115.884 791.206 115.707C791.582 115.526 792.013 115.433 792.5 115.429C793.214 115.433 793.834 115.622 794.358 115.996C794.879 116.366 795.284 116.902 795.572 117.603C795.857 118.3 796 119.141 796 120.126C796 121.103 795.856 121.953 795.567 122.678C795.278 123.399 794.85 123.962 794.284 124.368C793.714 124.77 793.009 124.98 792.169 125L792.169 122.525C792.561 122.497 792.887 122.381 793.15 122.176C793.408 121.967 793.604 121.69 793.737 121.343C793.866 120.992 793.931 120.597 793.931 120.155C793.931 119.722 793.87 119.346 793.748 119.027C793.627 118.704 793.457 118.454 793.241 118.277C793.024 118.099 792.775 118.011 792.494 118.011C792.232 118.011 792.011 118.092 791.833 118.253C791.654 118.411 791.502 118.643 791.377 118.95C791.251 119.253 791.137 119.626 791.035 120.067L790.715 121.384C790.476 122.404 790.102 123.21 789.592 123.801C789.083 124.391 788.397 124.685 787.534 124.681C786.828 124.685 786.21 124.49 785.682 124.096C785.153 123.698 784.741 123.153 784.445 122.46C784.148 121.766 784 120.979 784 120.096C784 119.198 784.148 118.415 784.445 117.745C784.741 117.071 785.153 116.548 785.682 116.173C786.21 115.799 786.822 115.606 787.517 115.594L787.517 118.046Z" fill="white"/>
<path d="M786.195 114.169L784.16 114.169L784.16 104.232L786.195 104.232L786.195 107.936L795.835 107.936L795.835 110.465L786.195 110.465L786.195 114.169Z" fill="white"/>
<path d="M784.16 102.595L784.16 99.4406L792.004 96.1085L792.004 95.9667L784.16 92.6346L784.16 89.4797L795.835 89.4797L795.835 91.961L788.236 91.961L788.236 92.0615L795.778 95.1927L795.778 96.8824L788.207 100.014L788.207 100.114L795.835 100.114L795.835 102.595L784.16 102.595Z" fill="white"/>
<path d="M795.994 79.12C795.994 80.0023 795.848 80.788 795.555 81.4773C795.259 82.1626 794.852 82.7042 794.335 83.102C793.815 83.4959 793.214 83.6987 792.534 83.7105L792.534 81.1346C792.819 81.1189 793.07 81.0224 793.286 80.8452C793.499 80.664 793.665 80.4237 793.782 80.1244C793.9 79.825 793.959 79.4883 793.959 79.1141C793.959 78.7242 793.893 78.3796 793.76 78.0802C793.627 77.7809 793.442 77.5465 793.207 77.3772C792.971 77.2078 792.699 77.1231 792.391 77.1231C792.08 77.1231 791.804 77.2137 791.565 77.3949C791.322 77.5721 791.132 77.8281 790.995 78.1629C790.858 78.4938 790.79 78.8876 790.79 79.3445L790.79 80.473L788.977 80.473L788.977 79.3445C788.977 78.9585 788.912 78.6178 788.783 78.3224C788.654 78.0231 788.475 77.7907 788.247 77.6253C788.015 77.4599 787.745 77.3772 787.438 77.3772C787.145 77.3772 786.888 77.45 786.668 77.5958C786.444 77.7376 786.269 77.9384 786.143 78.1984C786.018 78.4544 785.955 78.7537 785.955 79.0964C785.955 79.443 786.016 79.7601 786.138 80.0476C786.256 80.3351 786.425 80.5655 786.645 80.7388C786.866 80.9121 787.124 81.0047 787.42 81.0165L787.42 83.4683C786.748 83.4565 786.155 83.2576 785.642 82.8716C785.129 82.4856 784.728 81.9657 784.439 81.3119C784.146 80.6541 784 79.9117 784 79.0846C784 78.2496 784.146 77.519 784.439 76.8927C784.732 76.2665 785.127 75.78 785.625 75.4334C786.119 75.0829 786.674 74.9096 787.289 74.9135C787.943 74.9096 788.488 75.1203 788.925 75.5457C789.362 75.9671 789.64 76.5166 789.758 77.194L789.849 77.194C789.959 76.3039 790.257 75.6264 790.744 75.1617C791.227 74.693 791.831 74.4606 792.557 74.4645C793.222 74.4606 793.813 74.6595 794.33 75.0612C794.847 75.459 795.253 76.0085 795.55 76.7096C795.846 77.4106 795.994 78.2141 795.994 79.12Z" fill="white"/>
<path d="M795.835 72.6257L794.056 72.6257L790.208 68.3187C789.866 67.9524 789.558 67.6452 789.285 67.3971C789.011 67.145 788.743 66.954 788.481 66.824C788.215 66.694 787.928 66.6291 787.62 66.6291C787.278 66.6291 786.983 66.7098 786.736 66.8713C786.486 67.0328 786.294 67.2533 786.161 67.533C786.024 67.8126 785.955 68.1297 785.955 68.4842C785.955 68.8544 786.028 69.1774 786.172 69.4531C786.316 69.7288 786.524 69.9415 786.793 70.0911C787.063 70.2408 787.384 70.3156 787.757 70.3156L787.757 72.7438C786.993 72.7438 786.33 72.5646 785.767 72.2062C785.205 71.8478 784.77 71.3456 784.462 70.6997C784.154 70.0537 784 69.3093 784 68.4664C784 67.5999 784.148 66.8457 784.445 66.2037C784.737 65.5577 785.144 65.0556 785.665 64.6971C786.185 64.3387 786.782 64.1595 787.455 64.1595C787.895 64.1595 788.331 64.2501 788.76 64.4313C789.19 64.6085 789.667 64.9256 790.191 65.3825C790.712 65.8394 791.337 66.4833 792.067 67.3144L793.737 69.0809L793.817 69.0809L793.817 64L795.835 64L795.835 72.6257Z" fill="white"/>
<path d="M359.135 259.469L359.135 254.495L374.865 254.495C376.632 254.495 378.177 254.905 379.502 255.724C380.826 256.536 381.859 257.673 382.6 259.136C383.334 260.599 383.7 262.303 383.7 264.248C383.7 266.2 383.334 267.908 382.6 269.371C381.859 270.833 380.826 271.971 379.502 272.782C378.177 273.594 376.632 274 374.865 274L359.135 274L359.135 269.026L374.428 269.026C375.35 269.026 376.17 268.831 376.888 268.44C377.605 268.042 378.169 267.483 378.579 266.763C378.989 266.043 379.194 265.205 379.194 264.248C379.194 263.283 378.989 262.444 378.579 261.732C378.169 261.012 377.605 260.457 376.888 260.066C376.17 259.668 375.35 259.469 374.428 259.469L359.135 259.469Z" fill="white"/>
<path d="M359.135 245.429L383.357 245.429L383.357 250.403L359.135 250.403L359.135 245.429Z" fill="white"/>
<path d="M358 231.183L387 238.764L387 242.98L358 235.398L358 231.183Z" fill="white"/>
<path d="M359.135 214.202L359.135 209.229L374.865 209.229C376.632 209.229 378.177 209.638 379.502 210.458C380.826 211.269 381.859 212.407 382.6 213.869C383.334 215.332 383.7 217.036 383.7 218.981C383.7 220.934 383.334 222.641 382.6 224.104C381.859 225.567 380.826 226.704 379.502 227.516C378.177 228.327 376.632 228.733 374.865 228.733L359.135 228.733L359.135 223.759L374.428 223.759C375.35 223.759 376.17 223.564 376.888 223.174C377.605 222.775 378.169 222.216 378.579 221.497C378.989 220.777 379.194 219.938 379.194 218.981C379.194 218.016 378.989 217.178 378.579 216.465C378.169 215.745 377.605 215.19 376.888 214.8C376.17 214.402 375.35 214.202 374.428 214.202L359.135 214.202Z" fill="white"/>
<path d="M359.135 200.473L367.391 195.729L367.391 195.545L359.135 190.778L359.135 185.161L371.246 192.34L383.357 185L383.357 190.72L375.09 195.545L375.09 195.729L383.357 200.553L383.357 206.251L371.246 198.888L359.135 206.113L359.135 200.473Z" fill="white"/>
<path d="M641 162.842V159.195H657.51V162.842H651.355V180.116H647.154V162.842H641Z" fill="white" fill-opacity="0.91"/>
<path d="M661.004 186C660.474 186 659.977 185.956 659.512 185.867C659.054 185.785 658.675 185.68 658.374 185.551L659.316 182.302C659.807 182.459 660.248 182.544 660.641 182.557C661.04 182.571 661.384 182.476 661.672 182.271C661.966 182.067 662.205 181.72 662.388 181.229L662.634 180.565L657.225 164.425H661.623L664.744 175.948H664.901L668.052 164.425H672.479L666.619 181.812C666.337 182.656 665.955 183.392 665.47 184.018C664.993 184.652 664.387 185.139 663.654 185.479C662.922 185.826 662.038 186 661.004 186Z" fill="white" fill-opacity="0.91"/>
<path d="M674.618 186V164.425H678.741V167.061H678.928C679.111 166.639 679.376 166.21 679.723 165.774C680.076 165.331 680.534 164.963 681.097 164.671C681.666 164.371 682.373 164.221 683.217 164.221C684.316 164.221 685.331 164.521 686.26 165.12C687.189 165.713 687.932 166.608 688.488 167.807C689.044 168.998 689.322 170.493 689.322 172.291C689.322 174.041 689.051 175.519 688.508 176.725C687.971 177.923 687.238 178.832 686.309 179.452C685.386 180.065 684.352 180.371 683.207 180.371C682.396 180.371 681.705 180.232 681.136 179.953C680.573 179.673 680.112 179.323 679.752 178.9C679.392 178.471 679.117 178.039 678.928 177.603H678.8V186H674.618ZM678.712 172.271C678.712 173.204 678.836 174.018 679.085 174.712C679.333 175.407 679.693 175.948 680.164 176.336C680.635 176.718 681.208 176.908 681.882 176.908C682.563 176.908 683.138 176.714 683.61 176.326C684.081 175.931 684.437 175.386 684.679 174.692C684.928 173.99 685.052 173.183 685.052 172.271C685.052 171.365 684.931 170.568 684.689 169.88C684.447 169.193 684.091 168.655 683.619 168.266C683.148 167.878 682.569 167.684 681.882 167.684C681.201 167.684 680.626 167.871 680.154 168.246C679.69 168.62 679.333 169.152 679.085 169.839C678.836 170.527 678.712 171.338 678.712 172.271Z" fill="white" fill-opacity="0.91"/>
<path d="M698.981 180.422C697.43 180.422 696.095 180.096 694.976 179.442C693.864 178.781 693.006 177.848 692.404 176.643C691.802 175.431 691.501 173.997 691.501 172.342C691.501 170.728 691.802 169.312 692.404 168.093C693.006 166.874 693.854 165.924 694.947 165.243C696.046 164.562 697.335 164.221 698.814 164.221C699.809 164.221 700.735 164.388 701.592 164.722C702.456 165.049 703.208 165.542 703.849 166.203C704.497 166.863 705.001 167.694 705.361 168.695C705.721 169.69 705.901 170.854 705.901 172.189V173.384H693.17V170.687H701.965C701.965 170.061 701.834 169.506 701.572 169.022C701.31 168.539 700.947 168.161 700.483 167.888C700.025 167.609 699.491 167.47 698.883 167.47C698.248 167.47 697.685 167.623 697.194 167.929C696.71 168.229 696.331 168.634 696.056 169.145C695.781 169.649 695.64 170.211 695.634 170.83V173.394C695.634 174.171 695.771 174.842 696.046 175.407C696.327 175.972 696.723 176.408 697.234 176.714C697.744 177.021 698.349 177.174 699.05 177.174C699.514 177.174 699.939 177.106 700.326 176.97C700.712 176.834 701.042 176.629 701.317 176.357C701.592 176.084 701.801 175.751 701.945 175.356L705.813 175.621C705.616 176.588 705.214 177.433 704.605 178.155C704.003 178.87 703.224 179.428 702.269 179.83C701.32 180.225 700.224 180.422 698.981 180.422Z" fill="white" fill-opacity="0.91"/>
<path d="M721.174 168.9L717.346 169.145C717.28 168.804 717.14 168.498 716.924 168.225C716.708 167.946 716.423 167.725 716.07 167.561C715.723 167.391 715.307 167.306 714.823 167.306C714.175 167.306 713.629 167.449 713.184 167.735C712.739 168.014 712.517 168.389 712.517 168.859C712.517 169.233 712.661 169.55 712.948 169.809C713.236 170.068 713.73 170.275 714.431 170.432L717.159 171.004C718.625 171.317 719.718 171.821 720.438 172.516C721.158 173.211 721.517 174.123 721.517 175.254C721.517 176.282 721.226 177.184 720.644 177.961C720.068 178.737 719.276 179.343 718.269 179.779C717.267 180.208 716.112 180.422 714.804 180.422C712.808 180.422 711.218 179.99 710.033 179.125C708.855 178.253 708.165 177.068 707.962 175.57L712.075 175.345C712.199 175.979 712.5 176.462 712.978 176.796C713.456 177.123 714.067 177.286 714.813 177.286C715.546 177.286 716.135 177.14 716.58 176.847C717.032 176.547 717.261 176.163 717.267 175.693C717.261 175.298 717.1 174.974 716.786 174.722C716.472 174.464 715.988 174.266 715.334 174.13L712.723 173.588C711.25 173.282 710.154 172.751 709.434 171.995C708.721 171.239 708.365 170.275 708.365 169.104C708.365 168.096 708.626 167.228 709.15 166.499C709.68 165.77 710.423 165.209 711.378 164.814C712.34 164.419 713.465 164.221 714.755 164.221C716.659 164.221 718.157 164.64 719.25 165.478C720.349 166.315 720.991 167.456 721.174 168.9Z" fill="white" fill-opacity="0.91"/>
<path d="M730.963 180.422C729.418 180.422 728.09 180.082 726.977 179.401C725.872 178.713 725.021 177.76 724.425 176.541C723.836 175.322 723.542 173.919 723.542 172.332C723.542 170.725 723.84 169.315 724.435 168.103C725.037 166.884 725.891 165.934 726.997 165.253C728.103 164.565 729.418 164.221 730.943 164.221C732.258 164.221 733.41 164.47 734.398 164.967C735.386 165.464 736.168 166.162 736.744 167.061C737.32 167.96 737.637 169.015 737.696 170.228L733.75 170.228C733.639 169.444 733.344 168.815 732.867 168.338C732.396 167.854 731.777 167.613 731.012 167.613C730.364 167.613 729.798 167.796 729.314 168.164C728.836 168.525 728.463 169.053 728.195 169.748C727.926 170.442 727.792 171.283 727.792 172.271C727.792 173.272 727.923 174.123 728.185 174.825C728.453 175.526 728.829 176.061 729.314 176.428C729.798 176.796 730.364 176.98 731.012 176.98C731.489 176.98 731.918 176.878 732.297 176.673C732.684 176.469 733.001 176.173 733.25 175.785C733.505 175.39 733.672 174.916 733.75 174.365H737.696C737.631 175.563 737.317 176.619 736.754 177.532C736.198 178.437 735.429 179.146 734.447 179.656C733.466 180.167 732.304 180.422 730.963 180.422Z" fill="white" fill-opacity="0.91"/>
<path d="M740.373 180.116V164.425H744.427V167.163H744.584C744.859 166.189 745.32 165.454 745.968 164.957C746.616 164.453 747.362 164.201 748.206 164.201C748.416 164.201 748.641 164.214 748.883 164.242C749.126 164.269 749.338 164.306 749.521 164.354V168.215C749.325 168.154 749.054 168.099 748.707 168.052C748.36 168.004 748.043 167.98 747.755 167.98C747.14 167.98 746.59 168.12 746.106 168.399C745.628 168.672 745.248 169.053 744.967 169.543C744.692 170.034 744.555 170.599 744.555 171.239V180.116L740.373 180.116Z" fill="white" fill-opacity="0.91"/>
<path d="M751.683 180.116V164.425H755.865V180.116H751.683ZM753.784 162.403C753.162 162.403 752.629 162.188 752.184 161.759C751.746 161.323 751.526 160.802 751.526 160.196C751.526 159.597 751.746 159.083 752.184 158.654C752.629 158.218 753.162 158 753.784 158C754.406 158 754.936 158.218 755.374 158.654C755.819 159.083 756.041 159.597 756.041 160.196C756.041 160.802 755.819 161.323 755.374 161.759C754.936 162.188 754.406 162.403 753.784 162.403Z" fill="white" fill-opacity="0.91"/>
<path d="M759.214 186V164.425H763.337V167.061H763.523C763.707 166.639 763.972 166.21 764.318 165.774C764.672 165.331 765.13 164.963 765.693 164.671C766.262 164.371 766.969 164.221 767.813 164.221C768.912 164.221 769.926 164.521 770.856 165.12C771.785 165.713 772.528 166.608 773.084 167.807C773.64 168.998 773.918 170.493 773.918 172.291C773.918 174.041 773.647 175.519 773.103 176.725C772.567 177.923 771.834 178.832 770.905 179.452C769.982 180.065 768.948 180.371 767.803 180.371C766.992 180.371 766.301 180.232 765.732 179.953C765.169 179.673 764.708 179.323 764.348 178.9C763.988 178.471 763.713 178.039 763.523 177.603H763.396V186H759.214ZM763.307 172.271C763.307 173.204 763.432 174.018 763.68 174.712C763.929 175.407 764.289 175.948 764.76 176.336C765.231 176.718 765.804 176.908 766.478 176.908C767.158 176.908 767.734 176.714 768.205 176.326C768.677 175.931 769.033 175.386 769.275 174.692C769.524 173.99 769.648 173.183 769.648 172.271C769.648 171.365 769.527 170.568 769.285 169.88C769.043 169.193 768.686 168.655 768.215 168.266C767.744 167.878 767.165 167.684 766.478 167.684C765.797 167.684 765.222 167.871 764.75 168.246C764.286 168.62 763.929 169.152 763.68 169.839C763.432 170.527 763.307 171.338 763.307 172.271Z" fill="white" fill-opacity="0.91"/>
<path d="M784.725 164.425V167.694H775.646V164.425H784.725ZM777.707 160.666H781.888V175.294C781.888 175.696 781.947 176.009 782.065 176.234C782.183 176.452 782.347 176.605 782.556 176.694C782.772 176.782 783.021 176.827 783.302 176.827C783.498 176.827 783.695 176.81 783.891 176.776C784.087 176.735 784.238 176.704 784.342 176.684L785 179.922C784.791 179.99 784.496 180.068 784.117 180.157C783.737 180.252 783.276 180.31 782.733 180.331C781.725 180.371 780.841 180.232 780.082 179.912C779.33 179.592 778.744 179.094 778.325 178.42C777.907 177.746 777.7 176.895 777.707 175.866V160.666Z" fill="white" fill-opacity="0.91"/>
<path d="M693.848 249.762L693.848 255.047C693.175 255.144 692.577 255.341 692.055 255.638C691.524 255.936 691.073 256.318 690.701 256.785C690.329 257.251 690.044 257.79 689.846 258.402C689.648 259.005 689.549 259.66 689.549 260.368C689.549 261.647 689.861 262.761 690.487 263.711C691.105 264.66 692.007 265.396 693.195 265.919C694.375 266.442 695.808 266.703 697.494 266.703C699.228 266.703 700.685 266.442 701.865 265.919C703.044 265.388 703.935 264.648 704.537 263.699C705.139 262.749 705.439 261.651 705.439 260.404C705.439 259.705 705.348 259.057 705.166 258.462C704.984 257.859 704.719 257.324 704.371 256.857C704.014 256.39 703.583 256.004 703.076 255.699C702.569 255.385 701.991 255.168 701.342 255.047L701.366 249.762C702.482 249.899 703.559 250.241 704.596 250.788C705.625 251.327 706.548 252.055 707.363 252.972C708.171 253.881 708.812 254.967 709.287 256.23C709.755 257.484 709.988 258.904 709.988 260.489C709.988 262.693 709.497 264.664 708.515 266.401C707.534 268.131 706.112 269.498 704.252 270.504C702.391 271.501 700.139 272 697.494 272C694.842 272 692.585 271.493 690.724 270.48C688.864 269.466 687.447 268.091 686.473 266.353C685.491 264.616 685 262.661 685 260.489C685 259.057 685.198 257.73 685.594 256.507C685.99 255.276 686.568 254.186 687.328 253.237C688.08 252.288 689.002 251.516 690.095 250.921C691.188 250.317 692.439 249.931 693.848 249.762Z" fill="white"/>
<path d="M692.328 232.61C691.37 232.707 690.625 233.121 690.095 233.853C689.565 234.585 689.299 235.578 689.299 236.833C689.299 237.686 689.418 238.406 689.656 238.993C689.885 239.58 690.206 240.031 690.618 240.345C691.029 240.65 691.496 240.803 692.019 240.803C692.454 240.819 692.835 240.727 693.159 240.526C693.484 240.316 693.765 240.031 694.002 239.669C694.232 239.307 694.434 238.889 694.608 238.414C694.774 237.939 694.917 237.433 695.036 236.894L695.558 234.674C695.796 233.596 696.112 232.606 696.508 231.705C696.904 230.804 697.391 230.024 697.969 229.364C698.547 228.705 699.228 228.194 700.012 227.832C700.796 227.462 701.694 227.273 702.708 227.265C704.196 227.273 705.487 227.659 706.58 228.423C707.664 229.179 708.508 230.273 709.109 231.705C709.703 233.129 710 234.846 710 236.858C710 238.852 709.699 240.59 709.097 242.07C708.496 243.542 707.605 244.692 706.425 245.521C705.238 246.341 703.769 246.772 702.019 246.812L702.019 241.756C702.835 241.7 703.515 241.463 704.062 241.044C704.6 240.618 705.008 240.051 705.285 239.343C705.554 238.627 705.689 237.819 705.689 236.918C705.689 236.033 705.562 235.265 705.309 234.613C705.055 233.954 704.703 233.443 704.252 233.081C703.8 232.719 703.282 232.538 702.696 232.538C702.15 232.538 701.69 232.703 701.318 233.033C700.946 233.354 700.629 233.829 700.368 234.456C700.107 235.076 699.869 235.836 699.656 236.737L698.99 239.428C698.492 241.511 697.712 243.156 696.651 244.363C695.59 245.569 694.161 246.169 692.363 246.16C690.891 246.169 689.604 245.77 688.504 244.966C687.403 244.153 686.544 243.039 685.926 241.624C685.309 240.208 685 238.599 685 236.797C685 234.963 685.309 233.362 685.926 231.995C686.544 230.619 687.403 229.549 688.504 228.785C689.604 228.021 690.879 227.627 692.328 227.603L692.328 232.61Z" fill="white"/>
<path d="M692.328 210.345C691.37 210.442 690.625 210.856 690.095 211.588C689.565 212.32 689.299 213.314 689.299 214.568C689.299 215.421 689.418 216.141 689.656 216.728C689.885 217.315 690.206 217.766 690.618 218.08C691.029 218.385 691.496 218.538 692.019 218.538C692.454 218.554 692.835 218.462 693.159 218.261C693.484 218.051 693.765 217.766 694.002 217.404C694.232 217.042 694.434 216.624 694.608 216.149C694.774 215.674 694.917 215.168 695.036 214.629L695.558 212.409C695.796 211.331 696.112 210.341 696.508 209.44C696.904 208.539 697.391 207.759 697.969 207.1C698.547 206.44 699.228 205.929 700.012 205.567C700.796 205.197 701.694 205.008 702.708 205C704.196 205.008 705.487 205.394 706.58 206.158C707.664 206.914 708.508 208.008 709.109 209.44C709.703 210.864 710 212.582 710 214.593C710 216.587 709.699 218.325 709.097 219.805C708.496 221.277 707.605 222.427 706.425 223.256C705.238 224.076 703.769 224.507 702.019 224.547L702.019 219.491C702.835 219.435 703.515 219.198 704.062 218.779C704.6 218.353 705.008 217.786 705.285 217.078C705.554 216.362 705.689 215.554 705.689 214.653C705.689 213.768 705.562 213 705.309 212.348C705.055 211.689 704.703 211.178 704.252 210.816C703.8 210.454 703.282 210.273 702.696 210.273C702.15 210.273 701.69 210.438 701.318 210.768C700.946 211.089 700.629 211.564 700.368 212.191C700.107 212.811 699.869 213.571 699.656 214.472L698.99 217.163C698.492 219.246 697.712 220.891 696.651 222.098C695.59 223.304 694.161 223.904 692.363 223.896C690.891 223.904 689.604 223.505 688.504 222.701C687.403 221.889 686.544 220.774 685.926 219.359C685.309 217.943 685 216.334 685 214.532C685 212.698 685.309 211.097 685.926 209.73C686.544 208.354 687.403 207.285 688.504 206.52C689.604 205.756 690.879 205.362 692.328 205.338L692.328 210.345Z" fill="white"/>
<path d="M575 154L552 154L552 149.028L561.49 149.028L561.49 138.936L552 138.936L552 133.975L575 133.975L575 138.936L565.499 138.936L565.499 149.028L575 149.028L575 154Z" fill="white"/>
<path d="M556.009 126.892L552 126.892L552 107.579L556.009 107.579L556.009 114.779L575 114.779L575 119.693L556.009 119.693L556.009 126.892Z" fill="white"/>
<path d="M552 100.519L552 94.3876L567.453 87.9117L567.453 87.6362L552 81.1604L552 75.029L575 75.029L575 79.8514L560.03 79.8514L560.03 80.0466L574.888 86.132L574.888 89.4159L559.974 95.5013L559.974 95.6965L575 95.6965L575 100.519L552 100.519Z" fill="white"/>
<path d="M575 67.0528L552 67.0528L552 62.0811L570.991 62.0811L570.991 52L575 52L575 67.0528Z" fill="white"/>
<path d="M430 133.615V130.139H446.571V133.615H440.394V150.08H436.177V133.615H430Z" fill="white"/>
<path d="M453.922 150.372C452.366 150.372 451.026 150.061 449.903 149.437C448.786 148.808 447.926 147.919 447.322 146.77C446.718 145.614 446.415 144.248 446.415 142.67C446.415 141.132 446.718 139.782 447.322 138.62C447.926 137.458 448.777 136.552 449.873 135.903C450.977 135.254 452.271 134.93 453.755 134.93C454.753 134.93 455.683 135.089 456.543 135.407C457.41 135.718 458.165 136.189 458.809 136.819C459.459 137.448 459.965 138.24 460.326 139.194C460.687 140.142 460.868 141.252 460.868 142.524V143.664H448.09V141.093H456.917C456.917 140.496 456.786 139.967 456.523 139.506C456.261 139.045 455.896 138.685 455.43 138.425C454.97 138.159 454.435 138.026 453.824 138.026C453.187 138.026 452.622 138.172 452.129 138.464C451.643 138.75 451.262 139.136 450.987 139.623C450.711 140.103 450.57 140.639 450.563 141.229V143.673C450.563 144.413 450.701 145.053 450.977 145.591C451.259 146.13 451.657 146.546 452.169 146.838C452.681 147.13 453.289 147.276 453.991 147.276C454.458 147.276 454.885 147.211 455.272 147.081C455.66 146.951 455.991 146.757 456.267 146.497C456.543 146.237 456.753 145.919 456.898 145.543L460.779 145.796C460.582 146.718 460.178 147.523 459.567 148.211C458.963 148.892 458.182 149.424 457.223 149.807C456.27 150.184 455.17 150.372 453.922 150.372Z" fill="white"/>
<path d="M476.197 139.389L472.355 139.623C472.289 139.298 472.148 139.006 471.931 138.746C471.715 138.48 471.429 138.269 471.074 138.114C470.726 137.951 470.309 137.87 469.823 137.87C469.173 137.87 468.625 138.006 468.178 138.279C467.731 138.545 467.508 138.902 467.508 139.35C467.508 139.707 467.652 140.009 467.941 140.256C468.23 140.502 468.726 140.7 469.429 140.85L472.168 141.395C473.639 141.693 474.736 142.174 475.458 142.836C476.181 143.498 476.542 144.368 476.542 145.445C476.542 146.426 476.25 147.286 475.665 148.026C475.087 148.766 474.293 149.343 473.281 149.759C472.276 150.168 471.117 150.372 469.803 150.372C467.8 150.372 466.204 149.96 465.015 149.136C463.833 148.305 463.14 147.175 462.937 145.747L467.065 145.533C467.189 146.137 467.492 146.598 467.971 146.916C468.45 147.227 469.065 147.383 469.813 147.383C470.549 147.383 471.14 147.243 471.587 146.964C472.04 146.679 472.27 146.312 472.276 145.864C472.27 145.488 472.109 145.179 471.793 144.939C471.478 144.692 470.992 144.504 470.335 144.374L467.715 143.858C466.237 143.566 465.137 143.06 464.415 142.339C463.699 141.619 463.341 140.7 463.341 139.584C463.341 138.623 463.603 137.796 464.129 137.101C464.661 136.406 465.406 135.871 466.365 135.494C467.331 135.118 468.46 134.93 469.754 134.93C471.665 134.93 473.169 135.329 474.266 136.127C475.37 136.926 476.013 138.013 476.197 139.389Z" fill="white"/>
<path d="M487.234 135.124V138.24H478.121V135.124H487.234ZM480.19 131.541H484.386V145.484C484.386 145.867 484.446 146.166 484.564 146.38C484.682 146.588 484.846 146.734 485.056 146.818C485.273 146.903 485.523 146.945 485.805 146.945C486.002 146.945 486.199 146.929 486.396 146.896C486.593 146.857 486.744 146.828 486.849 146.809L487.509 149.895C487.299 149.96 487.004 150.035 486.623 150.119C486.242 150.21 485.779 150.265 485.234 150.285C484.222 150.323 483.336 150.19 482.574 149.885C481.818 149.58 481.231 149.106 480.81 148.464C480.39 147.821 480.183 147.01 480.19 146.03V131.541Z" fill="white"/>
<path d="M489.967 150.08V135.124H494.164V150.08H489.967ZM492.076 133.197C491.452 133.197 490.917 132.992 490.47 132.583C490.03 132.168 489.81 131.671 489.81 131.093C489.81 130.522 490.03 130.032 490.47 129.623C490.917 129.208 491.452 129 492.076 129C492.7 129 493.232 129.208 493.672 129.623C494.118 130.032 494.342 130.522 494.342 131.093C494.342 131.671 494.118 132.168 493.672 132.583C493.232 132.992 492.7 133.197 492.076 133.197Z" fill="white"/>
<path d="M501.723 141.434V150.08H497.526V135.124H501.526V137.763H501.703C502.038 136.893 502.6 136.205 503.388 135.699C504.176 135.186 505.132 134.93 506.255 134.93C507.306 134.93 508.222 135.157 509.003 135.611C509.785 136.066 510.393 136.715 510.826 137.559C511.26 138.396 511.476 139.396 511.476 140.558V150.08H507.279V141.298C507.286 140.382 507.05 139.668 506.57 139.155C506.091 138.636 505.431 138.376 504.59 138.376C504.025 138.376 503.526 138.497 503.092 138.737C502.666 138.977 502.331 139.327 502.088 139.788C501.851 140.243 501.73 140.791 501.723 141.434Z" fill="white"/>
<path d="M521.601 156C520.242 156 519.076 155.815 518.104 155.445C517.139 155.082 516.37 154.585 515.799 153.955C515.227 153.326 514.856 152.618 514.685 151.833L518.567 151.317C518.685 151.615 518.872 151.894 519.129 152.154C519.385 152.414 519.723 152.621 520.143 152.777C520.57 152.939 521.089 153.021 521.7 153.021C522.613 153.021 523.365 152.8 523.956 152.358C524.554 151.924 524.852 151.193 524.852 150.168V147.432H524.675C524.491 147.847 524.215 148.24 523.848 148.61C523.48 148.98 523.007 149.282 522.429 149.515C521.851 149.749 521.161 149.866 520.36 149.866C519.224 149.866 518.189 149.606 517.257 149.087C516.331 148.561 515.592 147.759 515.04 146.682C514.495 145.598 514.222 144.228 514.222 142.573C514.222 140.879 514.502 139.464 515.06 138.328C515.618 137.192 516.36 136.342 517.286 135.777C518.219 135.212 519.24 134.93 520.35 134.93C521.197 134.93 521.907 135.072 522.478 135.358C523.05 135.637 523.509 135.988 523.857 136.41C524.212 136.825 524.485 137.234 524.675 137.636H524.833V135.124H529V150.226C529 151.498 528.685 152.563 528.054 153.42C527.424 154.277 526.55 154.919 525.434 155.348C524.324 155.783 523.046 156 521.601 156ZM521.69 146.75C522.367 146.75 522.938 146.585 523.404 146.254C523.877 145.916 524.238 145.436 524.488 144.812C524.744 144.183 524.872 143.43 524.872 142.554C524.872 141.677 524.747 140.918 524.498 140.275C524.248 139.626 523.887 139.123 523.414 138.766C522.941 138.409 522.367 138.23 521.69 138.23C521 138.23 520.419 138.415 519.946 138.785C519.473 139.149 519.115 139.655 518.872 140.304C518.629 140.953 518.508 141.703 518.508 142.554C518.508 143.417 518.629 144.163 518.872 144.793C519.122 145.416 519.48 145.9 519.946 146.244C520.419 146.581 521 146.75 521.69 146.75Z" fill="white"/>
</svg>
