<svg width="58" height="58" viewBox="0 0 58 58" fill="none" xmlns="http://www.w3.org/2000/svg">
<g clip-path="url(#clip0_236_109)">
<path d="M57.9999 8.06481C57.9999 5.54072 57.2804 3.54325 55.8617 2.12905C50.1667 -3.5448 35.1932 2.48838 21.7676 15.8688C21.2798 16.3551 20.8339 16.8735 20.4051 17.4047C20.2644 17.3465 20.1024 17.2945 19.9162 17.2512C16.0496 16.3476 3.63996 18.4557 0.0273789 32.8884C-0.0655921 33.2584 0.0831132 33.646 0.399032 33.8593C0.552188 33.9637 0.729189 34.015 0.90617 34.015C1.09286 34.015 1.27964 33.9575 1.43805 33.8425C6.3414 30.2856 10.2751 28.855 13.7089 29.3816C13.472 29.8113 13.2314 30.2303 12.983 30.6308C12.7608 30.9892 12.8148 31.4529 13.1131 31.7503L14.5351 33.1677L11.8732 35.8196C11.7024 35.9895 11.6068 36.2205 11.6068 36.4612C11.6068 36.7019 11.7024 36.9329 11.8732 37.1029L20.7809 45.9812C20.9579 46.1574 21.1888 46.2458 21.4207 46.2458C21.6526 46.2458 21.8836 46.1574 22.0606 45.9812L24.726 43.3245L26.1519 44.7458C26.3272 44.9201 26.5582 45.0104 26.7918 45.0104C26.9555 45.0104 27.1202 44.9661 27.2671 44.8759C27.6416 44.6449 28.0304 44.4205 28.4304 44.1997C29.0203 47.6506 27.5914 51.6093 23.9775 56.5589C23.7527 56.8669 23.7448 57.2828 23.9571 57.5988C24.1279 57.8536 24.412 57.9997 24.7094 57.9997C24.782 57.9997 24.8554 57.9908 24.928 57.9732C39.374 54.3809 41.5086 42.0147 40.6183 38.1577C40.5639 37.9224 40.4926 37.7371 40.4154 37.5728C40.9913 37.1176 41.5525 36.6422 42.0768 36.1196C51.75 26.4792 57.9999 15.4662 57.9999 8.06481ZM14.5521 27.6846C11.0165 26.9394 7.13129 27.9758 2.51775 30.9131C4.78691 24.6163 8.91996 21.6417 12.1626 20.2407C14.5937 19.1911 16.8062 18.8973 18.2222 18.8973C18.602 18.8973 18.9231 18.9185 19.1772 18.9513L14.5521 27.6846ZM21.4207 44.0599L13.7972 36.4612L15.8186 34.4478L22.4048 41.0112L23.4421 42.0447L21.4207 44.0599ZM37.6394 45.8317C36.2375 49.0788 33.2515 53.2162 26.9122 55.4845C29.854 50.8904 30.8938 47.0211 30.1478 43.4953L38.9147 38.8826C39.0722 40.0738 38.9572 42.7784 37.6394 45.8317ZM31.4372 40.6588C29.8434 41.4261 28.3255 42.1554 26.9325 42.9642L14.8955 30.9679C15.5455 29.8549 16.1465 28.646 16.7551 27.3974L20.4352 20.4491C21.2054 19.2568 22.0588 18.1375 23.0473 17.152C35.3295 4.9106 49.7684 -1.38095 54.582 3.4123C55.6476 4.47433 56.1874 6.03988 56.1874 8.06481C56.1874 14.9024 50.0021 25.6615 40.7971 34.8363C38.2332 37.3913 34.7782 39.0525 31.4372 40.6588Z" fill="#FFB400"/>
<path d="M38.7191 11.6481C37.6863 12.6756 37.1172 14.043 37.1172 15.4979C37.1172 16.9538 37.6863 18.3211 38.7191 19.3486C39.7837 20.4079 41.1821 20.9381 42.5803 20.9381C43.9787 20.9381 45.377 20.4079 46.4408 19.3486C47.4736 18.3211 48.0418 16.9538 48.0418 15.4979C48.0418 14.043 47.4736 12.6756 46.4408 11.6481C44.3133 9.5294 40.8484 9.5294 38.7191 11.6481ZM45.1629 18.0636C43.738 19.4813 41.4219 19.4813 39.9971 18.0636C39.3094 17.3785 38.9297 16.4678 38.9297 15.4979C38.9297 14.5288 39.3094 13.6181 39.9971 12.9331C40.7095 12.2242 41.6449 11.8702 42.5803 11.8702C43.5159 11.8702 44.4504 12.2242 45.1629 12.9331C45.8505 13.6181 46.2293 14.5288 46.2293 15.4979C46.2293 16.4678 45.8505 17.3785 45.1629 18.0636Z" fill="#FFB400"/>
<path d="M14.9214 42.7268C14.5683 42.3719 13.9948 42.3719 13.6399 42.7251L4.58187 51.7531C4.22778 52.1062 4.22606 52.6796 4.58005 53.0345C4.75703 53.2124 4.98894 53.301 5.22168 53.301C5.45267 53.301 5.68458 53.2124 5.86157 53.0363L14.9196 44.0084C15.2736 43.6552 15.2754 43.0817 14.9214 42.7268Z" fill="#FFB400"/>
<path d="M5.18768 47.1006C5.41869 47.1006 5.65051 47.0121 5.8276 46.836L11.7925 40.8905C12.1465 40.5374 12.1474 39.9639 11.7942 39.609C11.4412 39.2541 10.8677 39.2532 10.5128 39.6072L4.54778 45.5528C4.1938 45.9058 4.19289 46.4794 4.54606 46.8343C4.72305 47.0121 4.95496 47.1006 5.18768 47.1006Z" fill="#FFB400"/>
<path d="M16.7671 45.8416L10.8022 51.7871C10.4482 52.1402 10.4473 52.7138 10.8005 53.0687C10.9774 53.2465 11.2093 53.335 11.4421 53.335C11.673 53.335 11.9049 53.2465 12.0819 53.0704L18.0469 47.1249C18.4009 46.7718 18.4018 46.1983 18.0486 45.8434C17.6956 45.4885 17.122 45.4876 16.7671 45.8416Z" fill="#FFB400"/>
</g>
<defs>
<clipPath id="clip0_236_109">
<rect width="58" height="58" fill="white"/>
</clipPath>
</defs>
</svg>
