<svg width="68" height="69" viewBox="0 0 68 69" fill="none" xmlns="http://www.w3.org/2000/svg">
<path d="M63.2188 7.67871H4.78125C3.79531 7.67981 2.85007 8.07462 2.1529 8.77653C1.45574 9.47844 1.06359 10.4301 1.0625 11.4228V48.8632C1.06359 49.8559 1.45574 50.8076 2.1529 51.5095C2.85007 52.2114 3.79531 52.6062 4.78125 52.6073H26.0552L24.7802 55.8165H19.125C18.8432 55.8165 18.573 55.9292 18.3737 56.1298C18.1744 56.3304 18.0625 56.6025 18.0625 56.8862V59.0257H11.6875C11.4057 59.0257 11.1355 59.1384 10.9362 59.339C10.7369 59.5396 10.625 59.8117 10.625 60.0954C10.625 60.3791 10.7369 60.6512 10.9362 60.8518C11.1355 61.0524 11.4057 61.1651 11.6875 61.1651H56.3125C56.5943 61.1651 56.8645 61.0524 57.0638 60.8518C57.2631 60.6512 57.375 60.3791 57.375 60.0954C57.375 59.8117 57.2631 59.5396 57.0638 59.339C56.8645 59.1384 56.5943 59.0257 56.3125 59.0257H49.9375V56.8862C49.9375 56.6025 49.8256 56.3304 49.6263 56.1298C49.427 55.9292 49.1568 55.8165 48.875 55.8165H43.2198L41.9448 52.6073H63.2188C64.2047 52.6062 65.1499 52.2114 65.8471 51.5095C66.5443 50.8076 66.9364 49.8559 66.9375 48.8632V11.4228C66.9364 10.4301 66.5443 9.47844 65.8471 8.77653C65.1499 8.07462 64.2047 7.67981 63.2188 7.67871ZM47.8125 57.9559V59.0257H20.1875V57.9559H47.8125ZM27.0698 55.8165L28.3448 52.6073H39.6552L40.9302 55.8165H27.0698ZM64.8125 48.8632C64.8121 49.2887 64.6441 49.6966 64.3453 49.9975C64.0465 50.2983 63.6413 50.4675 63.2188 50.4678H4.78125C4.35867 50.4675 3.9535 50.2983 3.65469 49.9975C3.35588 49.6966 3.18785 49.2887 3.1875 48.8632V46.1889H64.8125V48.8632ZM64.8125 44.0495H3.1875V11.4228C3.18785 10.9973 3.35588 10.5894 3.65469 10.2885C3.9535 9.98769 4.35867 9.81852 4.78125 9.81817H63.2188C63.6413 9.81852 64.0465 9.98769 64.3453 10.2885C64.6441 10.5894 64.8121 10.9973 64.8125 11.4228V44.0495Z" fill="#FFB400"/>
<path d="M29.1671 35.3162C29.2838 35.3933 29.4144 35.4464 29.5514 35.4727C29.6885 35.499 29.8294 35.4978 29.966 35.4692C30.1026 35.4407 30.2323 35.3853 30.3477 35.3063C30.4631 35.2272 30.5618 35.1261 30.6384 35.0086L39.0056 22.1719C39.1602 21.9347 39.2149 21.6454 39.1577 21.3676C39.1005 21.0898 38.936 20.8463 38.7004 20.6906C38.4648 20.5349 38.1774 20.4798 37.9015 20.5374C37.6256 20.5951 37.3837 20.7607 37.2291 20.9979L28.8619 33.8346C28.7853 33.9521 28.7324 34.0835 28.7063 34.2216C28.6802 34.3596 28.6813 34.5015 28.7096 34.639C28.738 34.7766 28.793 34.9072 28.8715 35.0234C28.9499 35.1396 29.0504 35.2391 29.1671 35.3162Z" fill="#FFB400"/>
<path d="M40.7573 35.2437C40.9738 35.4253 41.2531 35.5129 41.5337 35.4872C41.8143 35.4615 42.0733 35.3246 42.2537 35.1066L47.5662 28.6882C47.7253 28.496 47.8124 28.2537 47.8124 28.0035C47.8124 27.7533 47.7253 27.511 47.5662 27.3187L42.2537 20.9004C42.1647 20.7915 42.0551 20.7015 41.9314 20.6354C41.8077 20.5694 41.6723 20.5286 41.5328 20.5154C41.3934 20.5022 41.2528 20.517 41.119 20.5587C40.9853 20.6004 40.861 20.6684 40.7534 20.7586C40.6459 20.8489 40.5571 20.9597 40.4921 21.0846C40.4272 21.2095 40.3875 21.3461 40.3752 21.4866C40.3629 21.627 40.3783 21.7685 40.4205 21.9029C40.4627 22.0374 40.5309 22.1621 40.6212 22.2699L45.3668 28.0035L40.6212 33.7371C40.4408 33.9551 40.3538 34.2362 40.3793 34.5188C40.4049 34.8013 40.5408 35.0621 40.7573 35.2437Z" fill="#FFB400"/>
<path d="M25.7462 35.1066C25.8352 35.2154 25.9448 35.3055 26.0685 35.3715C26.1922 35.4376 26.3276 35.4784 26.4671 35.4915C26.6065 35.5047 26.7471 35.49 26.8809 35.4483C27.0146 35.4065 27.1389 35.3386 27.2465 35.2483C27.354 35.1581 27.4428 35.0473 27.5078 34.9224C27.5727 34.7975 27.6124 34.6608 27.6247 34.5204C27.637 34.38 27.6216 34.2385 27.5794 34.104C27.5372 33.9696 27.469 33.8449 27.3787 33.7371L22.6331 28.0035L27.3787 22.2699C27.469 22.1621 27.5372 22.0374 27.5794 21.9029C27.6216 21.7685 27.637 21.627 27.6247 21.4866C27.6124 21.3461 27.5727 21.2095 27.5078 21.0846C27.4428 20.9597 27.354 20.8489 27.2465 20.7586C27.1389 20.6684 27.0146 20.6004 26.8809 20.5587C26.7471 20.517 26.6065 20.5022 26.4671 20.5154C26.3276 20.5286 26.1922 20.5694 26.0685 20.6354C25.9448 20.7015 25.8352 20.7915 25.7462 20.9004L20.4337 27.3187C20.2746 27.511 20.1875 27.7533 20.1875 28.0035C20.1875 28.2537 20.2746 28.496 20.4337 28.6882L25.7462 35.1066Z" fill="#FFB400"/>
</svg>
