<svg width="79" height="79" viewBox="0 0 79 79" fill="none" xmlns="http://www.w3.org/2000/svg">
<g clip-path="url(#clip0_217_29)">
<path d="M78.7731 75.5018L75.2403 52.7053V39.2531C75.2382 38.117 74.8567 37.0141 74.1562 36.1196C73.4558 35.2251 72.4767 34.5901 71.3742 34.3156V31.5778C72.7126 30.765 73.7837 29.5781 74.4552 28.1635L74.47 28.1339C74.9731 27.0805 75.2369 25.9289 75.2428 24.7616C75.2483 22.9498 74.6372 21.19 73.51 19.7716C72.3829 18.3531 70.8066 17.3603 69.0404 16.9565C67.2742 16.5526 65.4231 16.7617 63.7915 17.5494C62.1599 18.337 60.8448 19.6563 60.0624 21.2905C60.0501 21.3102 60.0402 21.3325 60.0278 21.3522C59.1633 23.132 58.9998 25.1718 59.5696 27.0666C60.1395 28.9614 61.4011 30.5726 63.1039 31.5802V34.8834C62.8955 35.0024 62.6959 35.136 62.5065 35.2834L56.6506 39.974H51.2342C50.5819 39.9785 49.9402 40.1394 49.3628 40.4431C49.3328 39.4833 48.9311 38.5728 48.2425 37.9035C47.5539 37.2343 46.6323 36.8587 45.6721 36.856H44.4377V30.6841C44.4299 30.6053 44.4142 30.5276 44.3908 30.452C45.5788 29.8855 46.6226 29.0565 47.4433 28.0275C48.264 26.9985 48.8402 25.7965 49.1283 24.5122H50.6096C52.2464 24.5122 53.8163 23.862 54.9737 22.7045C56.1312 21.5471 56.7814 19.9772 56.7814 18.3403V13.4028C56.7814 12.4207 56.3913 11.4788 55.6968 10.7843C55.0023 10.0899 54.0604 9.69971 53.0783 9.69971H49.3752V8.46533C49.3752 7.4832 48.985 6.5413 48.2906 5.84683C47.5961 5.15236 46.6542 4.76221 45.6721 4.76221H33.3283C32.3462 4.76221 31.4043 5.15236 30.7098 5.84683C30.0153 6.5413 29.6252 7.4832 29.6252 8.46533V9.69971H25.9221C24.9399 9.69971 23.998 10.0899 23.3036 10.7843C22.6091 11.4788 22.2189 12.4207 22.2189 13.4028V18.3403C22.2189 19.9772 22.8692 21.5471 24.0266 22.7045C25.1841 23.862 26.7539 24.5122 28.3908 24.5122H29.8721C30.1612 25.7974 30.7389 27 31.5614 28.0291C32.3839 29.0582 33.4296 29.8867 34.6195 30.452C34.596 30.5276 34.5803 30.6053 34.5726 30.6841V36.856H33.3382C32.3796 36.8586 31.4594 37.2328 30.7711 37.9C30.0828 38.5671 29.68 39.4752 29.6474 40.4332C29.0701 40.1295 28.4284 39.9687 27.7761 39.9641H22.3498L16.4939 35.2735C16.3045 35.1261 16.1049 34.9925 15.8965 34.8736V31.5778C17.5989 30.5697 18.8599 28.9583 19.4293 27.0636C19.9987 25.1688 19.8348 23.1292 18.9701 21.3497C18.9577 21.33 18.9503 21.3078 18.938 21.288C18.0288 19.3775 16.398 17.9063 14.4042 17.1982C12.4103 16.49 10.2169 16.6029 8.30629 17.5121C6.39572 18.4212 4.92455 20.0521 4.21642 22.0459C3.5083 24.0397 3.62121 26.2332 4.53034 28.1437L4.54515 28.1734C5.21663 29.588 6.28772 30.7749 7.62615 31.5876V34.3403C6.5237 34.6148 5.54455 35.2498 4.84414 36.1443C4.14372 37.0388 3.76218 38.1417 3.76009 39.2778V52.7201L0.224839 75.5166C0.12877 76.3203 0.339986 77.1307 0.816163 77.7854C1.29234 78.44 1.99831 78.8905 2.7926 79.0466C3.5869 79.2027 4.41084 79.0529 5.09935 78.6272C5.78786 78.2015 6.29006 77.5313 6.50534 76.751L11.5021 60.83L13.3685 62.879L11.8082 75.4178C11.7757 75.5803 11.7608 75.7459 11.7638 75.9116C11.761 76.7074 12.0496 77.4766 12.575 78.0743C13.1004 78.672 13.8263 79.0568 14.6159 79.1561C15.4054 79.2554 16.204 79.0623 16.8611 78.6134C17.5181 78.1644 17.9881 77.4905 18.1825 76.7189L21.3524 64.1875C21.6084 63.1559 21.5438 62.0708 21.1672 61.0769L17.8295 52.5695V46.568L19.723 47.9875C19.9367 48.1478 20.1966 48.2344 20.4636 48.2344H27.7662C28.3713 48.2324 28.9685 48.0969 29.5152 47.8374C30.0619 47.5779 30.5445 47.201 30.9287 46.7334H48.0742C48.4583 47.201 48.9409 47.5779 49.4876 47.8374C50.0343 48.0969 50.6315 48.2324 51.2366 48.2344H58.5392C58.8063 48.2344 59.0661 48.1478 59.2798 47.9875L61.1733 46.568V52.5695L57.8307 61.0991C57.4564 62.092 57.3936 63.1753 57.6504 64.2048L60.8252 76.7238C61.0155 77.5003 61.4848 78.1796 62.1436 78.6324C62.8025 79.0852 63.6049 79.2798 64.398 79.1792C65.191 79.0785 65.9194 78.6896 66.4442 78.0866C66.9691 77.4835 67.2537 76.7085 67.244 75.9091C67.2481 75.7743 67.2382 75.6394 67.2144 75.5067L65.6393 62.879L67.5057 60.8275L72.4728 76.6423C72.6612 77.4425 73.1496 78.1399 73.8371 78.5907C74.5246 79.0414 75.3588 79.2111 76.1678 79.0649C76.9768 78.9186 77.6988 78.4674 78.1849 77.8045C78.671 77.1415 78.8842 76.3173 78.7805 75.5018H78.7731ZM49.3752 12.1685H53.0783C53.4057 12.1685 53.7197 12.2985 53.9511 12.53C54.1826 12.7615 54.3127 13.0755 54.3127 13.4028V18.3403C54.3127 19.3225 53.9225 20.2644 53.2281 20.9588C52.5336 21.6533 51.5917 22.0435 50.6096 22.0435H49.3752V12.1685ZM29.6252 22.0435H28.3908C27.4087 22.0435 26.4668 21.6533 25.7723 20.9588C25.0778 20.2644 24.6877 19.3225 24.6877 18.3403V13.4028C24.6877 13.0755 24.8177 12.7615 25.0492 12.53C25.2807 12.2985 25.5947 12.1685 25.9221 12.1685H29.6252V22.0435ZM17.2938 24.7591C17.2973 25.8229 16.9925 26.865 16.4163 27.7593C15.84 28.6535 15.0171 29.3617 14.0468 29.7981C13.0766 30.2345 12.0007 30.3804 10.9493 30.2183C9.89793 30.0561 8.91602 29.5928 8.12237 28.8844H8.86299C9.19037 28.8844 9.50434 28.7543 9.73583 28.5228C9.96732 28.2913 10.0974 27.9774 10.0974 27.65V24.8085L17.1136 23.4161C17.2292 23.8554 17.2897 24.3073 17.2938 24.7616V24.7591ZM13.4277 32.5875V34.1774C13.3857 34.1774 13.3462 34.1774 13.3067 34.1774H10.0974V32.5875C11.1953 32.8277 12.3322 32.8277 13.4302 32.5875H13.4277ZM6.51274 26.4156C6.33215 25.8783 6.23637 25.316 6.22884 24.7492C6.22631 23.6238 6.56845 22.5246 7.20925 21.5994C7.85005 20.6742 8.75879 19.9674 9.81324 19.5741C10.8677 19.1807 12.0173 19.1197 13.1075 19.3992C14.1977 19.6787 15.1761 20.2853 15.9113 21.1374L8.62106 22.5841C8.34225 22.641 8.09166 22.7925 7.91171 23.013C7.73176 23.2334 7.6335 23.5092 7.63356 23.7938V26.4156H6.51274ZM4.12053 76.1214C3.98475 76.7435 3.01946 76.6547 2.84171 76.4522C2.77342 76.3747 2.72246 76.2836 2.69224 76.1848C2.66201 76.086 2.65321 75.9819 2.66643 75.8795L6.05109 54.036H11.0478L4.12053 76.1214ZM18.8664 61.9804C19.0601 62.4969 19.0919 63.06 18.9577 63.595L15.8002 76.1017C15.735 76.2786 15.6092 76.4266 15.4452 76.5196C15.2812 76.6125 15.0896 76.6444 14.9043 76.6095C14.719 76.5745 14.5521 76.4751 14.4332 76.3288C14.3143 76.1825 14.2511 75.9988 14.2547 75.8104L15.8989 62.6198C15.9217 62.4425 15.9056 62.2624 15.8519 62.0919C15.7982 61.9214 15.7081 61.7646 15.5879 61.6323L12.3785 58.0971L13.6548 54.031H15.773L18.8664 61.9804ZM24.6877 45.7657H20.8759L13.4697 40.211C13.34 40.1137 13.1924 40.043 13.0354 40.0027C12.8784 39.9625 12.715 39.9536 12.5545 39.9765C12.394 39.9994 12.2396 40.0538 12.1002 40.1363C11.9607 40.2189 11.8388 40.3282 11.7416 40.4579C11.6443 40.5875 11.5735 40.7351 11.5333 40.8921C11.4931 41.0492 11.4842 41.2126 11.5071 41.3731C11.53 41.5335 11.5843 41.6879 11.6669 41.8274C11.7495 41.9669 11.8588 42.0887 11.9884 42.186L15.4225 44.7634C15.3887 44.8615 15.368 44.9635 15.3607 45.067V51.5672H6.22637V39.2531C6.22702 38.5551 6.50442 37.8859 6.99774 37.3921C7.49107 36.8983 8.16006 36.6203 8.85806 36.619H13.3018C13.8995 36.6198 14.4792 36.8235 14.946 37.1966L21.1401 42.1514C21.3596 42.3264 21.6321 42.4213 21.9128 42.4205H24.6877V45.7657ZM27.7662 45.7657H27.1564V42.4329H27.7662C28.2082 42.4329 28.632 42.6084 28.9445 42.9209C29.2571 43.2335 29.4326 43.6573 29.4326 44.0993C29.4326 44.5412 29.2571 44.9651 28.9445 45.2776C28.632 45.5901 28.2082 45.7657 27.7662 45.7657ZM32.0939 22.631V8.46533C32.0939 8.13796 32.224 7.82399 32.4555 7.5925C32.687 7.36101 33.0009 7.23096 33.3283 7.23096H45.6721C45.9994 7.23096 46.3134 7.36101 46.5449 7.5925C46.7764 7.82399 46.9064 8.13796 46.9064 8.46533V22.631C46.9 23.9695 46.4606 25.2699 45.6538 26.3378C44.847 27.4058 43.7163 28.184 42.4306 28.556C40.5153 29.1033 38.485 29.1033 36.5698 28.556C35.2841 28.184 34.1533 27.4058 33.3466 26.3378C32.5398 25.2699 32.1004 23.9695 32.0939 22.631ZM41.9689 31.1803V36.8584H37.0314V31.1803C38.6584 31.5327 40.342 31.5327 41.9689 31.1803ZM46.9064 44.2647H32.0939V40.5616C32.0939 40.2342 32.224 39.9202 32.4555 39.6887C32.687 39.4572 33.0009 39.3272 33.3283 39.3272H45.6721C45.9994 39.3272 46.3134 39.4572 46.5449 39.6887C46.7764 39.9202 46.9064 40.2342 46.9064 40.5616V44.2647ZM67.2391 19.2266C68.7064 19.2286 70.1131 19.8123 71.1507 20.8499C72.1883 21.8875 72.772 23.2942 72.774 24.7616C72.7665 25.3284 72.6707 25.8906 72.4901 26.428H71.3767V23.7938C71.3767 23.5092 71.2785 23.2334 71.0985 23.013C70.9186 22.7925 70.668 22.641 70.3892 22.5841L63.099 21.1374C63.6122 20.5413 64.2474 20.0622 64.9616 19.7326C65.6758 19.4029 66.4524 19.2304 67.2391 19.2266ZM61.7066 24.7616C61.7122 24.3071 61.7744 23.8551 61.8917 23.4161L68.9079 24.8085V27.65C68.9079 27.9774 69.038 28.2913 69.2695 28.5228C69.501 28.7543 69.8149 28.8844 70.1423 28.8844H70.8829C70.0887 29.5942 69.1057 30.0583 68.053 30.2206C67.0002 30.3829 65.923 30.2363 64.952 29.7985C63.9809 29.3608 63.1576 28.6508 62.582 27.7546C62.0064 26.8583 61.7032 25.8144 61.7091 24.7492L61.7066 24.7616ZM68.9055 32.5875V34.165H65.6961C65.6541 34.165 65.6146 34.165 65.5751 34.165V32.5875C66.6731 32.8277 67.81 32.8277 68.9079 32.5875H68.9055ZM51.8439 45.7657H51.2342C50.7922 45.7657 50.3683 45.5901 50.0558 45.2776C49.7433 44.9651 49.5677 44.5412 49.5677 44.0993C49.5677 43.6573 49.7433 43.2335 50.0558 42.9209C50.3683 42.6084 50.7922 42.4329 51.2342 42.4329H51.8439V45.7657ZM63.4248 61.6373C63.3046 61.7695 63.2145 61.9263 63.1608 62.0968C63.1071 62.2673 63.091 62.4475 63.1138 62.6248L64.7678 75.914C64.741 76.0887 64.6581 76.2499 64.5316 76.3734C64.4051 76.4968 64.2419 76.5757 64.0667 76.5983C63.8914 76.6209 63.7135 76.5858 63.5599 76.4985C63.4063 76.4111 63.2852 76.2762 63.215 76.114L60.0451 63.6073C59.9104 63.0744 59.9405 62.5131 60.1315 61.9977L63.2496 54.0409H65.3678L66.6441 58.107L63.4248 61.6373ZM66.2713 51.5672H63.6396V45.067C63.6324 44.9635 63.6116 44.8615 63.5779 44.7634L67.0119 42.186C67.1416 42.0887 67.2509 41.9669 67.3335 41.8274C67.416 41.6879 67.4704 41.5335 67.4933 41.3731C67.5162 41.2126 67.5073 41.0492 67.4671 40.8921C67.4268 40.7351 67.3561 40.5875 67.2588 40.4579C67.1616 40.3282 67.0397 40.2189 66.9002 40.1363C66.7607 40.0538 66.6063 39.9994 66.4459 39.9765C66.2854 39.9536 66.122 39.9625 65.965 40.0027C65.8079 40.043 65.6604 40.1137 65.5307 40.211L58.1244 45.7657H54.3127V42.4329H57.0851C57.3658 42.4336 57.6383 42.3387 57.8578 42.1638L64.0519 37.209C64.5187 36.8358 65.0984 36.6321 65.6961 36.6313H70.1398C70.8361 36.6319 71.5039 36.908 71.9974 37.3992C72.4909 37.8904 72.7701 38.5568 72.774 39.2531V51.5549H66.2713V51.5672ZM76.1463 76.4522C76.039 76.5371 75.9121 76.5939 75.7773 76.6173C75.6425 76.6408 75.5039 76.6302 75.3742 76.5866C75.2445 76.5429 75.1277 76.4676 75.0345 76.3674C74.9413 76.2672 74.8745 76.1453 74.8403 76.0128L67.9426 54.0409H72.9369L76.3191 75.8696C76.3348 75.9726 76.3287 76.0776 76.301 76.178C76.2734 76.2784 76.2249 76.3719 76.1587 76.4522H76.1463Z" fill="#FFB400"/>
</g>
<defs>
<clipPath id="clip0_217_29">
<rect width="79" height="79" fill="white"/>
</clipPath>
</defs>
</svg>
